<?xml version="1.0" encoding="UTF-8" standalone="no"?>
<!-- Created with Inkscape (http://www.inkscape.org/) -->

<svg
   xmlns:dc="http://purl.org/dc/elements/1.1/"
   xmlns:cc="http://creativecommons.org/ns#"
   xmlns:rdf="http://www.w3.org/1999/02/22-rdf-syntax-ns#"
   xmlns:svg="http://www.w3.org/2000/svg"
   xmlns="http://www.w3.org/2000/svg"
   xmlns:sodipodi="http://sodipodi.sourceforge.net/DTD/sodipodi-0.dtd"
   xmlns:inkscape="http://www.inkscape.org/namespaces/inkscape"
   width="158.08737mm"
   height="88.008354mm"
   viewBox="0 0 158.08737 88.008354"
   version="1.1"
   id="svg12553"
   inkscape:version="0.92.4 5da689c313, 2019-01-14"
   sodipodi:docname="task.svg"
   inkscape:export-filename="/home/sarah/Documents/BAMB/Project/bamb-adaptation-to-regime-changes/documents/images/task.png"
   inkscape:export-xdpi="300"
   inkscape:export-ydpi="300">
  <defs
     id="defs12547" />
  <sodipodi:namedview
     id="base"
     pagecolor="#ffffff"
     bordercolor="#666666"
     borderopacity="1.0"
     inkscape:pageopacity="0.0"
     inkscape:pageshadow="2"
     inkscape:zoom="0.35"
     inkscape:cx="-106.96647"
     inkscape:cy="212.0293"
     inkscape:document-units="mm"
     inkscape:current-layer="layer1"
     showgrid="false"
     fit-margin-top="0"
     fit-margin-left="0"
     fit-margin-right="0"
     fit-margin-bottom="0"
     inkscape:window-width="1920"
     inkscape:window-height="1028"
     inkscape:window-x="0"
     inkscape:window-y="0"
     inkscape:window-maximized="1" />
  <metadata
     id="metadata12550">
    <rdf:RDF>
      <cc:Work
         rdf:about="">
        <dc:format>image/svg+xml</dc:format>
        <dc:type
           rdf:resource="http://purl.org/dc/dcmitype/StillImage" />
        <dc:title></dc:title>
      </cc:Work>
    </rdf:RDF>
  </metadata>
  <g
     inkscape:label="Layer 1"
     inkscape:groupmode="layer"
     id="layer1"
     transform="translate(7.9841687,-116.9244)">
    <path
       inkscape:connector-curvature="0"
       id="path3248"
       style="fill:#0f0f0f;fill-opacity:1;fill-rule:nonzero;stroke:none;stroke-width:0.35277775"
       d="m 105.81312,138.42443 h 36.3541 v 29.34688 h -36.3541 z" />
    <g
       transform="matrix(0.35277777,0,0,0.35277777,-67.185923,-273.11694)"
       id="g3250">
      <path
         inkscape:connector-curvature="0"
         id="path3252"
         style="fill:none;stroke:#ffffff;stroke-width:1.353374;stroke-linecap:butt;stroke-linejoin:miter;stroke-miterlimit:10;stroke-dasharray:none;stroke-opacity:1"
         d="m 541.922,1204.219 v 7.89" />
    </g>
    <g
       transform="matrix(0.35277777,0,0,0.35277777,-67.185923,-273.11694)"
       id="g3254">
      <path
         inkscape:connector-curvature="0"
         id="path3256"
         style="fill:none;stroke:#ffffff;stroke-width:1.353374;stroke-linecap:butt;stroke-linejoin:miter;stroke-miterlimit:10;stroke-dasharray:none;stroke-opacity:1"
         d="m 537.973,1208.156 h 7.89" />
    </g>
    <path
       inkscape:connector-curvature="0"
       id="path3258"
       style="fill:#0f0f0f;fill-opacity:1;fill-rule:nonzero;stroke:none;stroke-width:0.35277775"
       d="m 68.021801,157.54217 h 36.351279 v 29.34546 H 68.021801 Z" />
    <path
       inkscape:connector-curvature="0"
       id="path3260"
       style="fill:#ffffff;fill-opacity:1;fill-rule:nonzero;stroke:none;stroke-width:0.35277775"
       d="m 90.210818,164.93251 h 8.589433 v 14.56161 h -8.589433 z" />
    <path
       inkscape:connector-curvature="0"
       id="path3262"
       style="fill:#ffffff;fill-opacity:1;fill-rule:nonzero;stroke:none;stroke-width:0.35277775"
       d="m 73.594278,164.93251 h 8.589434 v 14.56161 h -8.589434 z" />
    <g
       transform="matrix(0.35277777,0,0,0.35277777,-67.185923,-273.11694)"
       id="g3264">
      <path
         inkscape:connector-curvature="0"
         id="path3266"
         style="fill:none;stroke:#0044aa;stroke-width:2.07587695;stroke-linecap:butt;stroke-linejoin:miter;stroke-miterlimit:10;stroke-dasharray:none;stroke-opacity:1"
         d="m 398.062,1240.648 h 26.289 v 43.195 h -26.289 z" />
    </g>
    <path
       inkscape:connector-curvature="0"
       id="path3268"
       style="fill:#c83737;fill-opacity:1;fill-rule:nonzero;stroke:none;stroke-width:0.35277775"
       d="m 94.497771,169.49639 -1.03469,2.69417 1.03469,2.73967 1.05163,-2.73967 -1.05163,-2.69417" />
    <path
       inkscape:connector-curvature="0"
       id="path3270"
       style="fill:#c83737;fill-opacity:1;fill-rule:nonzero;stroke:none;stroke-width:0.35277775"
       d="m 78.931453,174.89142 -1.052687,-2.69381 -1.03505,2.69381 z" />
    <path
       inkscape:connector-curvature="0"
       id="path3272"
       style="fill:#c83737;fill-opacity:1;fill-rule:nonzero;stroke:none;stroke-width:0.35277775"
       d="m 78.931453,169.53661 -1.052687,2.6924 -1.03505,-2.6924 z" />
    <path
       inkscape:connector-curvature="0"
       id="path3274"
       style="fill:#0f0f0f;fill-opacity:1;fill-rule:nonzero;stroke:none;stroke-width:0.35277775"
       d="m 68.021801,124.39199 h 36.351279 v 29.34935 H 68.021801 Z" />
    <path
       inkscape:connector-curvature="0"
       id="path3276"
       style="fill:#ffffff;fill-opacity:1;fill-rule:nonzero;stroke:none;stroke-width:0.35277775"
       d="m 90.210818,131.78798 h 8.589433 v 14.55631 h -8.589433 z" />
    <path
       inkscape:connector-curvature="0"
       id="path3278"
       style="fill:#c83737;fill-opacity:1;fill-rule:nonzero;stroke:none;stroke-width:0.35277775"
       d="m 94.497771,136.34657 -1.03469,2.69523 1.03469,2.74108 1.05163,-2.74108 -1.05163,-2.69523" />
    <path
       inkscape:connector-curvature="0"
       id="path3280"
       style="fill:#ffffff;fill-opacity:1;fill-rule:nonzero;stroke:none;stroke-width:0.35277775"
       d="m 73.594278,131.78798 h 8.589434 v 14.55631 h -8.589434 z" />
    <path
       inkscape:connector-curvature="0"
       id="path3282"
       style="fill:#c83737;fill-opacity:1;fill-rule:nonzero;stroke:none;stroke-width:0.35277775"
       d="m 78.931453,141.74548 -1.052687,-2.69522 -1.03505,2.69522 z" />
    <path
       inkscape:connector-curvature="0"
       id="path3284"
       style="fill:#c83737;fill-opacity:1;fill-rule:nonzero;stroke:none;stroke-width:0.35277775"
       d="m 78.931453,136.38503 -1.052687,2.69416 -1.03505,-2.69416 z" />
    <g
       transform="matrix(0.35277777,0,0,0.35277777,-67.185923,-273.11694)"
       id="g3286">
      <path
         inkscape:connector-curvature="0"
         id="path3288"
         style="fill:none;stroke:#0055d4;stroke-width:2.07587695;stroke-linecap:butt;stroke-linejoin:miter;stroke-miterlimit:10;stroke-dasharray:none;stroke-opacity:1"
         d="m 398.062,1146.684 h 26.289 v 43.207 h -26.289 z" />
    </g>
    <text
       id="text3294"
       style="font-variant:normal;font-weight:normal;font-size:7.00245571px;font-family:FreeSans;-inkscape-font-specification:FreeSans;writing-mode:lr-tb;fill:#090a0b;fill-opacity:1;fill-rule:nonzero;stroke:none;stroke-width:0.35277775"
       x="37.168442"
       y="122.24462">
      <tspan
         style="stroke-width:0.35277775"
         id="tspan3290"
         sodipodi:role="line"
         y="122.24462"
         x="37.168442 42.224213 46.103573 49.982933 51.537479 55.024704 119.92345 121.84913 126.12064 71.669548 77.103439 80.989799 82.922485 86.430717 90.296074 96.122124">ChoiceITIOutcome</tspan>
      <tspan
         style="stroke-width:0.35277775"
         id="tspan3292"
         sodipodi:role="line"
         y="122.57613"
         x="3.6973932 8.942234 13.01066">Cue</tspan>
    </text>
    <g
       transform="matrix(0.35277777,0,0,0.35277777,-67.185923,-273.11694)"
       id="g3296">
      <path
         inkscape:connector-curvature="0"
         id="path3298"
         style="fill:none;stroke:#231f20;stroke-width:1.804497;stroke-linecap:butt;stroke-linejoin:miter;stroke-miterlimit:10;stroke-dasharray:none;stroke-opacity:1"
         d="M 595.812,1312.355 H 167.816" />
    </g>
    <path
       inkscape:connector-curvature="0"
       id="path3300"
       style="fill:#231f20;fill-opacity:1;fill-rule:nonzero;stroke:none;stroke-width:0.35277775"
       d="m 141.73577,188.77535 1.07633,1.07738 -1.07633,1.07915 h 0.9137 l 1.07879,-1.07915 -1.07879,-1.07738 h -0.9137" />
    <path
       inkscape:connector-curvature="0"
       id="path3302"
       style="fill:#0f0f0f;fill-opacity:1;fill-rule:nonzero;stroke:none;stroke-width:0.35277775"
       d="m -7.573536,138.42443 h 36.351279 v 29.34688 H -7.573536 Z" />
    <path
       inkscape:connector-curvature="0"
       id="path3304"
       style="fill:#ffffff;fill-opacity:1;fill-rule:nonzero;stroke:none;stroke-width:0.35277775"
       d="m 14.618655,145.8176 h 8.589434 v 14.55773 h -8.589434 z" />
    <path
       inkscape:connector-curvature="0"
       id="path3306"
       style="fill:#c83737;fill-opacity:1;fill-rule:nonzero;stroke:none;stroke-width:0.35277775"
       d="m 18.90561,150.37619 -1.037519,2.69558 1.037519,2.74073 1.051631,-2.74073 -1.051631,-2.69558" />
    <path
       inkscape:connector-curvature="0"
       id="path3308"
       style="fill:#ffffff;fill-opacity:1;fill-rule:nonzero;stroke:none;stroke-width:0.35277775"
       d="m -2.0007056,145.8176 h 8.5894333 v 14.55773 h -8.5894333 z" />
    <path
       inkscape:connector-curvature="0"
       id="path3310"
       style="fill:#c83737;fill-opacity:1;fill-rule:nonzero;stroke:none;stroke-width:0.35277775"
       d="m 3.3378807,155.77263 -1.051278,-2.69275 -1.0364612,2.69275 z" />
    <path
       inkscape:connector-curvature="0"
       id="path3312"
       style="fill:#c83737;fill-opacity:1;fill-rule:nonzero;stroke:none;stroke-width:0.35277775"
       d="m 3.3378807,150.4217 -1.051278,2.68711 -1.0364612,-2.68711 z" />
    <path
       inkscape:connector-curvature="0"
       id="path3314"
       style="fill:#0f0f0f;fill-opacity:1;fill-rule:nonzero;stroke:none;stroke-width:0.35277775"
       d="m 30.139466,138.42443 h 36.351279 v 29.34688 H 30.139466 Z" />
    <path
       inkscape:connector-curvature="0"
       id="path3316"
       style="fill:#ffffff;fill-opacity:1;fill-rule:nonzero;stroke:none;stroke-width:0.35277775"
       d="m 52.328483,145.8176 h 8.589433 v 14.55773 h -8.589433 z" />
    <path
       inkscape:connector-curvature="0"
       id="path3318"
       style="fill:#c83737;fill-opacity:1;fill-rule:nonzero;stroke:none;stroke-width:0.35277775"
       d="m 56.617201,150.37619 -1.03646,2.69558 1.03646,2.74073 1.051277,-2.74073 -1.051277,-2.69558" />
    <path
       inkscape:connector-curvature="0"
       id="path3320"
       style="fill:#ffffff;fill-opacity:1;fill-rule:nonzero;stroke:none;stroke-width:0.35277775"
       d="m 35.712298,145.8176 h 8.589433 v 14.55773 h -8.589433 z" />
    <path
       inkscape:connector-curvature="0"
       id="path3322"
       style="fill:#c83737;fill-opacity:1;fill-rule:nonzero;stroke:none;stroke-width:0.35277775"
       d="m 41.049473,155.77263 -1.053042,-2.69275 -1.034698,2.69275 z" />
    <path
       inkscape:connector-curvature="0"
       id="path3324"
       style="fill:#c83737;fill-opacity:1;fill-rule:nonzero;stroke:none;stroke-width:0.35277775"
       d="m 41.049473,150.4217 -1.053042,2.68711 -1.034698,-2.68711 z" />
    <g
       transform="matrix(0.35277777,0,0,0.35277777,-67.185923,-273.11694)"
       id="g3326">
      <path
         inkscape:connector-curvature="0"
         id="path3328"
         style="fill:none;stroke:#0055d4;stroke-width:2.07587695;stroke-linecap:butt;stroke-linejoin:miter;stroke-miterlimit:10;stroke-dasharray:none;stroke-opacity:1"
         d="m 290.684,1186.453 h 26.285 v 43.211 h -26.285 z" />
    </g>
    <g
       transform="matrix(0.35277777,0,0,0.35277777,-67.185923,-273.11694)"
       id="g3330">
      <path
         inkscape:connector-curvature="0"
         id="path3332"
         style="fill:none;stroke:#231f20;stroke-width:1.804497;stroke-linecap:butt;stroke-linejoin:miter;stroke-miterlimit:10;stroke-dasharray:none;stroke-opacity:1"
         d="m 168.723,1318.781 v -12.847" />
    </g>
    <g
       transform="matrix(0.35277777,0,0,0.35277777,-67.185923,-273.11694)"
       id="g3334">
      <path
         inkscape:connector-curvature="0"
         id="path3336"
         style="fill:none;stroke:#231f20;stroke-width:1.804497;stroke-linecap:butt;stroke-linejoin:miter;stroke-miterlimit:10;stroke-dasharray:none;stroke-opacity:1"
         d="m 328.246,1318.781 v -12.847" />
    </g>
    <g
       transform="matrix(0.35277777,0,0,0.35277777,-67.185923,-273.11694)"
       id="g3338">
      <path
         inkscape:connector-curvature="0"
         id="path3340"
         style="fill:none;stroke:#231f20;stroke-width:1.804497;stroke-linecap:butt;stroke-linejoin:miter;stroke-miterlimit:10;stroke-dasharray:none;stroke-opacity:1"
         d="m 436.066,1318.781 v -12.847" />
    </g>
    <g
       transform="matrix(0.35277777,0,0,0.35277777,-67.185923,-273.11694)"
       id="g3342">
      <path
         inkscape:connector-curvature="0"
         id="path3344"
         style="fill:none;stroke:#231f20;stroke-width:1.804497;stroke-linecap:butt;stroke-linejoin:miter;stroke-miterlimit:10;stroke-dasharray:none;stroke-opacity:1"
         d="m 541.945,1318.781 v -12.847" />
    </g>
    <g
       transform="matrix(0.35277777,0,0,0.35277777,-67.185923,-273.11694)"
       id="g3346">
      <path
         inkscape:connector-curvature="0"
         id="path3348"
         style="fill:none;stroke:#231f20;stroke-width:1.804497;stroke-linecap:butt;stroke-linejoin:miter;stroke-miterlimit:10;stroke-dasharray:none;stroke-opacity:1"
         d="m 219.977,1318.781 v -12.847" />
    </g>
    <text
       id="text3354"
       style="font-variant:normal;font-weight:normal;font-size:6.36586714px;font-family:FreeSans;-inkscape-font-specification:FreeSans;writing-mode:lr-tb;fill:#090a0b;fill-opacity:1;fill-rule:nonzero;stroke:none;stroke-width:0.35277775"
       x="137.93503"
       y="196.90031">
      <tspan
         style="stroke-width:0.35277775"
         id="tspan3350"
         sodipodi:role="line"
         y="196.90031"
         x="137.93503 139.692 141.10522 146.39528">time</tspan>
      <tspan
         style="stroke-width:0.35277775"
         id="tspan3352"
         sodipodi:role="line"
         y="201.99312"
         x="137.9368 139.7065 144.99652 148.16672">[ms]</tspan>
    </text>
    <g
       transform="matrix(0.35277777,0,0,0.35277777,-67.185923,-273.11694)"
       id="g3356">
      <path
         inkscape:connector-curvature="0"
         id="path3358"
         style="fill:#2b1100;fill-opacity:1;fill-rule:nonzero;stroke:#000000;stroke-width:0.0340395;stroke-linecap:butt;stroke-linejoin:miter;stroke-miterlimit:4;stroke-dasharray:none;stroke-opacity:1"
         d="m 436.387,1160.789 c 0,0 -0.125,-0.117 -0.293,-0.133 -0.16,0 -0.258,0.094 -0.258,0.094 0,0 -0.109,0.141 -0.274,0.141 -0.167,0 -0.285,-0.133 -0.285,-0.133 -0.187,-0.168 -0.324,0.023 -0.324,0.023 0,0 -0.035,0.114 -0.203,0.129 -0.16,0.024 -0.254,-0.082 -0.254,-0.082 0,0 -0.152,-0.078 -0.312,-0.051 -0.168,0.028 -0.235,0.157 -0.235,0.157 0,0 -0.097,0.125 -0.258,0.164 -0.16,0.043 -0.269,-0.02 -0.269,-0.02 0,0 -0.164,-0.062 -0.32,0 -0.153,0.043 -0.204,0.18 -0.204,0.18 0,0 -0.082,0.137 -0.23,0.211 -0.152,0.07 -0.277,0.015 -0.277,0.015 0,0 -0.176,-0.035 -0.313,0.043 -0.144,0.082 -0.172,0.215 -0.172,0.215 0,0 -0.054,0.156 -0.199,0.238 -0.137,0.094 -0.269,0.067 -0.269,0.067 0,0 -0.176,0 -0.309,0.09 -0.129,0.097 -0.133,0.238 -0.133,0.238 0,0 -0.039,0.164 -0.156,0.273 -0.125,0.106 -0.258,0.094 -0.258,0.094 0,0 -0.176,0.02 -0.293,0.137 -0.109,0.121 -0.098,0.258 -0.098,0.258 0,0 -0.007,0.168 -0.109,0.289 -0.102,0.129 -0.242,0.136 -0.242,0.136 0,0 -0.168,0.051 -0.262,0.18 -0.094,0.133 -0.055,0.266 -0.055,0.266 0,0 0.012,0.168 -0.07,0.304 -0.082,0.145 -0.215,0.176 -0.215,0.176 0,0 -0.16,0.067 -0.234,0.215 -0.078,0.149 -0.012,0.277 -0.012,0.277 0,0 0.035,0.153 -0.019,0.309 -0.055,0.152 -0.192,0.203 -0.192,0.203 0,0 -0.14,0.102 -0.191,0.254 -0.047,0.156 0.031,0.274 0.031,0.274 0,0 0.063,0.152 0.027,0.304 -0.035,0.16 -0.148,0.231 -0.148,0.231 0,0 -0.133,0.121 -0.156,0.281 -0.024,0.168 0.07,0.273 0.07,0.273 0,0 0.094,0.129 0.078,0.289 -0.004,0.168 -0.109,0.262 -0.109,0.262 0,0 -0.113,0.129 -0.113,0.293 0,0.168 0.117,0.25 0.117,0.25 0,0 0.105,0.121 0.121,0.285 0.012,0.168 -0.07,0.27 -0.07,0.27 0,0 -0.09,0.144 -0.055,0.308 0.015,0.164 0.14,0.231 0.14,0.231 0,0 0.129,0.109 0.172,0.269 0.035,0.157 -0.031,0.27 -0.031,0.27 0,0 -0.055,0.16 -0.012,0.316 0.051,0.153 0.188,0.207 0.188,0.207 0,0 0.137,0.082 0.203,0.227 0.066,0.148 0.012,0.277 0.012,0.277 0,0 -0.032,0.176 0.043,0.321 0.078,0.14 0.211,0.175 0.211,0.175 0,0 0.152,0.055 0.242,0.192 0.09,0.137 0.054,0.269 0.054,0.269 0,0 -0.003,0.18 0.09,0.305 0.098,0.133 0.243,0.145 0.243,0.145 0,0 0.16,0.031 0.269,0.156 0.105,0.121 0.098,0.254 0.098,0.254 0,0 0.011,0.179 0.133,0.289 0.124,0.113 0.253,0.101 0.253,0.101 0,0 0.161,0.016 0.286,0.114 0.128,0.105 0.132,0.242 0.132,0.242 0,0 0.051,0.168 0.188,0.265 0.133,0.098 0.265,0.059 0.265,0.059 0,0 0.168,-0.016 0.305,0.074 0.145,0.086 0.168,0.215 0.168,0.215 0,0 0.074,0.156 0.223,0.231 0.137,0.078 0.277,0.023 0.277,0.023 0,0 0.153,-0.039 0.309,0.016 0.14,0.062 0.203,0.191 0.203,0.191 0,0 0.094,0.148 0.242,0.199 0.16,0.051 0.273,-0.023 0.273,-0.023 0,0 0.153,-0.067 0.317,-0.024 0.16,0.036 0.226,0.157 0.226,0.157 0,0 0.114,0.129 0.282,0.156 0.16,0.027 0.265,-0.063 0.265,-0.063 0,0 0.137,-0.082 0.301,-0.07 0.168,0.016 0.25,0.121 0.25,0.121 0,0 0.133,0.106 0.297,0.109 0.172,0 0.254,-0.105 0.254,-0.105 0,0 0.125,-0.102 0.285,-0.113 0.172,-0.012 0.273,0.078 0.273,0.078 0,0 0.141,0.094 0.309,0.07 0.16,-0.015 0.234,-0.137 0.234,-0.137 0,0 0.114,-0.125 0.27,-0.156 0.16,-0.035 0.277,0.043 0.277,0.043 0,0 0.157,0.063 0.321,0.02 0.148,-0.047 0.207,-0.172 0.207,-0.172 0,0 0.086,-0.141 0.246,-0.199 0.148,-0.063 0.269,0 0.269,0 0,0 0.172,0.039 0.321,-0.028 0.148,-0.066 0.179,-0.211 0.179,-0.211 0,0 0.075,-0.136 0.211,-0.226 0.145,-0.082 0.274,-0.043 0.274,-0.043 0,0 0.172,0.015 0.316,-0.074 0.133,-0.09 0.145,-0.235 0.145,-0.235 0,0 0.043,-0.152 0.168,-0.258 0.129,-0.097 0.261,-0.089 0.261,-0.089 0,0 0.176,0 0.297,-0.114 0.117,-0.117 0.11,-0.254 0.11,-0.254 0,0 0.023,-0.168 0.136,-0.281 0.11,-0.121 0.242,-0.121 0.242,-0.121 0,0 0.172,-0.035 0.274,-0.172 0.105,-0.121 0.074,-0.258 0.074,-0.258 0,0 -0.012,-0.168 0.078,-0.304 0.094,-0.133 0.227,-0.157 0.227,-0.157 0,0 0.16,-0.066 0.25,-0.203 0.074,-0.148 0.023,-0.273 0.023,-0.273 0,0 -0.023,-0.16 0.035,-0.309 0.075,-0.148 0.2,-0.195 0.2,-0.195 0,0 0.152,-0.094 0.211,-0.234 0.058,-0.161 -0.012,-0.29 -0.012,-0.29 0,0 -0.055,-0.144 -0.02,-0.3 0.051,-0.16 0.172,-0.223 0.172,-0.223 0,0 0.133,-0.113 0.172,-0.269 0.027,-0.161 -0.059,-0.278 -0.059,-0.278 0,0 -0.085,-0.137 -0.062,-0.301 0.02,-0.16 0.129,-0.238 0.129,-0.238 0,0 0.117,-0.137 0.117,-0.297 0.008,-0.16 -0.094,-0.258 -0.094,-0.258 0,0 -0.101,-0.121 -0.109,-0.293 -0.012,-0.16 0.09,-0.261 0.09,-0.261 0,0 0.094,-0.145 0.078,-0.309 -0.024,-0.164 -0.141,-0.242 -0.141,-0.242 0,0 -0.121,-0.105 -0.148,-0.266 -0.039,-0.164 0.051,-0.273 0.051,-0.273 0,0 0.058,-0.156 0.023,-0.309 -0.047,-0.164 -0.172,-0.222 -0.172,-0.222 0,0 -0.144,-0.094 -0.199,-0.246 -0.055,-0.157 0.004,-0.27 0.004,-0.27 0,0 0.047,-0.172 -0.027,-0.32 -0.063,-0.149 -0.204,-0.188 -0.204,-0.188 0,0 -0.136,-0.062 -0.226,-0.207 -0.078,-0.14 -0.039,-0.269 -0.039,-0.269 0,0 0.019,-0.176 -0.071,-0.309 -0.093,-0.141 -0.23,-0.16 -0.23,-0.16 0,0 -0.156,-0.043 -0.262,-0.156 -0.097,-0.145 -0.082,-0.278 -0.082,-0.278 0,0 -0.008,-0.172 -0.117,-0.289 -0.113,-0.125 -0.25,-0.121 -0.25,-0.121 0,0 -0.16,-0.015 -0.285,-0.125 -0.121,-0.117 -0.121,-0.246 -0.121,-0.246 0,0 -0.035,-0.18 -0.164,-0.277 -0.129,-0.106 -0.262,-0.078 -0.262,-0.078 0,0 -0.168,0.011 -0.301,-0.082 -0.136,-0.094 -0.16,-0.227 -0.16,-0.227 0,0 -0.055,-0.16 -0.203,-0.25 -0.141,-0.074 -0.273,-0.031 -0.273,-0.031 0,0 -0.165,0.031 -0.305,-0.039 -0.149,-0.067 -0.195,-0.203 -0.195,-0.203 0,0 -0.09,-0.149 -0.235,-0.204 -0.156,-0.062 -0.277,0 -0.277,0 0,0 -0.153,0.047 -0.309,0.016 -0.164,-0.055 -0.219,-0.172 -0.219,-0.172 0,0 -0.117,-0.144 -0.277,-0.176 -0.152,-0.035 -0.269,0.055 -0.269,0.055 0,0 -0.137,0.074 -0.305,0.051 -0.164,-0.027 -0.242,-0.141 -0.242,-0.141" />
    </g>
    <g
       transform="matrix(0.35277777,0,0,0.35277777,-67.185923,-273.11694)"
       id="g3360">
      <path
         inkscape:connector-curvature="0"
         id="path3362"
         style="fill:#ff6600;fill-opacity:1;fill-rule:nonzero;stroke:#000000;stroke-width:0.0438693;stroke-linecap:butt;stroke-linejoin:miter;stroke-miterlimit:4;stroke-dasharray:none;stroke-opacity:1"
         d="m 436.629,1254.066 c 0,0 -0.16,-0.152 -0.367,-0.171 -0.211,-0.012 -0.336,0.117 -0.336,0.117 0,0 -0.145,0.183 -0.356,0.183 -0.218,0.016 -0.363,-0.172 -0.363,-0.172 -0.242,-0.211 -0.418,0.039 -0.418,0.039 0,0 -0.055,0.141 -0.266,0.161 -0.207,0.027 -0.324,-0.11 -0.324,-0.11 0,0 -0.199,-0.101 -0.406,-0.062 -0.211,0.039 -0.301,0.199 -0.301,0.199 0,0 -0.133,0.164 -0.332,0.219 -0.207,0.051 -0.351,-0.039 -0.351,-0.039 0,0 -0.207,-0.071 -0.407,0 -0.199,0.062 -0.265,0.238 -0.265,0.238 0,0 -0.11,0.184 -0.297,0.273 -0.195,0.09 -0.352,0.02 -0.352,0.02 0,0 -0.234,-0.039 -0.414,0.059 -0.183,0.101 -0.219,0.273 -0.219,0.273 0,0 -0.07,0.203 -0.25,0.312 -0.175,0.118 -0.347,0.079 -0.347,0.079 0,0 -0.227,0 -0.403,0.121 -0.16,0.125 -0.171,0.308 -0.171,0.308 0,0 -0.043,0.207 -0.2,0.34 -0.164,0.137 -0.336,0.129 -0.336,0.129 0,0 -0.226,0.031 -0.367,0.176 -0.152,0.152 -0.133,0.336 -0.133,0.336 0,0 -0.007,0.203 -0.144,0.371 -0.125,0.164 -0.309,0.176 -0.309,0.176 0,0 -0.215,0.058 -0.336,0.238 -0.117,0.168 -0.074,0.34 -0.074,0.34 0,0 0.016,0.211 -0.094,0.39 -0.101,0.184 -0.269,0.223 -0.269,0.223 0,0 -0.211,0.086 -0.297,0.281 -0.098,0.188 -0.023,0.352 -0.023,0.352 0,0 0.046,0.199 -0.028,0.398 -0.07,0.203 -0.242,0.262 -0.242,0.262 0,0 -0.18,0.129 -0.246,0.328 -0.063,0.203 0.035,0.352 0.035,0.352 0,0 0.086,0.191 0.035,0.39 -0.043,0.211 -0.187,0.305 -0.187,0.305 0,0 -0.176,0.152 -0.203,0.363 -0.024,0.211 0.093,0.344 0.093,0.344 0,0 0.114,0.176 0.098,0.383 -0.004,0.211 -0.141,0.328 -0.141,0.328 0,0 -0.14,0.168 -0.14,0.379 0,0.215 0.152,0.336 0.152,0.336 0,0 0.129,0.148 0.145,0.355 0.023,0.223 -0.086,0.344 -0.086,0.344 0,0 -0.11,0.195 -0.071,0.402 0.024,0.204 0.192,0.301 0.192,0.301 0,0 0.16,0.133 0.215,0.34 0.043,0.203 -0.043,0.348 -0.043,0.348 0,0 -0.075,0.211 -0.012,0.406 0.066,0.199 0.238,0.273 0.238,0.273 0,0 0.18,0.098 0.262,0.293 0.09,0.192 0.02,0.356 0.02,0.356 0,0 -0.047,0.222 0.054,0.41 0.098,0.191 0.274,0.227 0.274,0.227 0,0 0.195,0.07 0.304,0.25 0.121,0.171 0.078,0.351 0.078,0.351 0,0 -0.011,0.223 0.114,0.383 0.129,0.176 0.308,0.195 0.308,0.195 0,0 0.211,0.035 0.348,0.195 0.133,0.157 0.121,0.333 0.121,0.333 0,0 0.023,0.226 0.18,0.367 0.152,0.144 0.324,0.129 0.324,0.129 0,0 0.211,0.015 0.375,0.148 0.164,0.133 0.172,0.316 0.172,0.316 0,0 0.062,0.207 0.234,0.336 0.172,0.125 0.348,0.082 0.348,0.082 0,0 0.203,-0.027 0.39,0.086 0.184,0.114 0.215,0.278 0.215,0.278 0,0 0.09,0.211 0.282,0.304 0.183,0.09 0.355,0.02 0.355,0.02 0,0 0.203,-0.043 0.402,0.027 0.192,0.082 0.262,0.25 0.262,0.25 0,0 0.117,0.188 0.317,0.254 0.203,0.059 0.351,-0.031 0.351,-0.031 0,0 0.195,-0.082 0.402,-0.035 0.211,0.054 0.293,0.207 0.293,0.207 0,0 0.157,0.164 0.364,0.199 0.211,0.039 0.343,-0.078 0.343,-0.078 0,0 0.176,-0.109 0.391,-0.094 0.211,0.016 0.32,0.156 0.32,0.156 0,0 0.168,0.137 0.379,0.149 0.223,0 0.324,-0.137 0.324,-0.137 0,0 0.168,-0.14 0.379,-0.152 0.219,-0.016 0.34,0.109 0.34,0.109 0,0 0.192,0.113 0.403,0.086 0.211,-0.016 0.308,-0.183 0.308,-0.183 0,0 0.137,-0.153 0.348,-0.196 0.203,-0.051 0.351,0.055 0.351,0.055 0,0 0.2,0.074 0.411,0.015 0.199,-0.054 0.269,-0.218 0.269,-0.218 0,0 0.109,-0.184 0.309,-0.254 0.203,-0.078 0.359,0 0.359,0 0,0 0.215,0.043 0.406,-0.035 0.196,-0.094 0.231,-0.274 0.231,-0.274 0,0 0.097,-0.183 0.277,-0.289 0.18,-0.109 0.352,-0.054 0.352,-0.054 0,0 0.222,0.015 0.402,-0.098 0.172,-0.121 0.195,-0.305 0.195,-0.305 0,0 0.051,-0.195 0.215,-0.336 0.164,-0.125 0.336,-0.109 0.336,-0.109 0,0 0.227,0 0.379,-0.152 0.156,-0.145 0.148,-0.329 0.148,-0.329 0,0 0.024,-0.207 0.172,-0.363 0.145,-0.156 0.321,-0.156 0.321,-0.156 0,0 0.215,-0.043 0.343,-0.211 0.137,-0.168 0.098,-0.34 0.098,-0.34 0,0 -0.016,-0.207 0.102,-0.391 0.121,-0.175 0.289,-0.199 0.289,-0.199 0,0 0.211,-0.082 0.32,-0.261 0.098,-0.196 0.035,-0.356 0.035,-0.356 0,0 -0.035,-0.211 0.047,-0.402 0.09,-0.192 0.254,-0.242 0.254,-0.242 0,0 0.199,-0.122 0.269,-0.309 0.075,-0.203 -0.015,-0.363 -0.015,-0.363 0,0 -0.07,-0.196 -0.016,-0.391 0.059,-0.211 0.215,-0.293 0.215,-0.293 0,0 0.176,-0.144 0.219,-0.348 0.035,-0.211 -0.071,-0.351 -0.071,-0.351 0,0 -0.109,-0.184 -0.082,-0.395 0.028,-0.203 0.161,-0.308 0.161,-0.308 0,0 0.16,-0.168 0.16,-0.379 0.004,-0.211 -0.121,-0.336 -0.121,-0.336 0,0 -0.141,-0.156 -0.149,-0.371 -0.008,-0.207 0.121,-0.336 0.121,-0.336 0,0 0.114,-0.192 0.098,-0.403 -0.027,-0.21 -0.184,-0.308 -0.184,-0.308 0,0 -0.152,-0.137 -0.187,-0.34 -0.047,-0.211 0.062,-0.359 0.062,-0.359 0,0 0.082,-0.2 0.028,-0.399 -0.055,-0.211 -0.219,-0.281 -0.219,-0.281 0,0 -0.184,-0.121 -0.254,-0.32 -0.074,-0.2 0.012,-0.352 0.012,-0.352 0,0 0.054,-0.219 -0.043,-0.406 -0.086,-0.195 -0.258,-0.238 -0.258,-0.238 0,0 -0.18,-0.082 -0.289,-0.27 -0.102,-0.184 -0.059,-0.348 -0.059,-0.348 0,0 0.028,-0.226 -0.093,-0.402 -0.114,-0.184 -0.297,-0.199 -0.297,-0.199 0,0 -0.199,-0.055 -0.336,-0.215 -0.129,-0.176 -0.098,-0.348 -0.098,-0.348 0,0 -0.019,-0.218 -0.156,-0.375 -0.145,-0.16 -0.324,-0.148 -0.324,-0.148 0,0 -0.2,-0.024 -0.364,-0.164 -0.156,-0.153 -0.156,-0.321 -0.156,-0.321 0,0 -0.043,-0.226 -0.211,-0.355 -0.176,-0.137 -0.347,-0.098 -0.347,-0.098 0,0 -0.207,0 -0.379,-0.109 -0.18,-0.117 -0.211,-0.293 -0.211,-0.293 0,0 -0.071,-0.211 -0.258,-0.316 -0.18,-0.102 -0.356,-0.047 -0.356,-0.047 0,0 -0.199,0.047 -0.394,-0.043 -0.188,-0.09 -0.242,-0.266 -0.242,-0.266 0,0 -0.121,-0.187 -0.309,-0.265 -0.199,-0.079 -0.351,0.015 -0.351,0.015 0,0 -0.207,0.067 -0.403,0.012 -0.211,-0.067 -0.281,-0.207 -0.281,-0.207 0,0 -0.148,-0.195 -0.355,-0.235 -0.196,-0.039 -0.348,0.071 -0.348,0.071 0,0 -0.18,0.097 -0.391,0.062 -0.219,-0.027 -0.32,-0.172 -0.32,-0.172" />
    </g>
    <path
       inkscape:connector-curvature="0"
       id="path3364"
       style="fill:#000000;fill-opacity:0.12941003;fill-rule:nonzero;stroke:none;stroke-width:0.35277775"
       d="m 85.772168,173.66658 -0.03175,0.005 c -0.0095,0 0.02752,-0.005 0.03175,-0.005 z" />
    <g
       transform="matrix(0.35277777,0,0,0.35277777,-67.185923,-273.11694)"
       id="g3366">
      <path
         inkscape:connector-curvature="0"
         id="path3368"
         style="fill:none;stroke:#000000;stroke-width:0.0509044;stroke-linecap:butt;stroke-linejoin:miter;stroke-miterlimit:4;stroke-dasharray:none;stroke-opacity:1"
         d="m 433.582,1266.473 h -0.09 c -0.027,0 0.078,0 0.09,0 z" />
    </g>
    <path
       inkscape:connector-curvature="0"
       id="path3370"
       style="fill:#000000;fill-opacity:0.31373004;fill-rule:nonzero;stroke:none;stroke-width:0.35277775"
       d="m 86.279462,173.27923 c -0.02893,0.34996 0.0702,1.08162 0.778581,1.0474 0.195437,-0.008 0.610304,-0.2025 0.81421,-0.47131 0.267407,-0.35278 0.513998,-0.70979 0.633942,-1.1423 0.121356,-0.42333 0.23001,-0.73872 0.109008,-1.34373 -0.03034,-0.16545 -0.137935,-0.5334 -0.583141,-0.58843 -0.363715,-0.0441 -0.636411,0.1845 -0.79234,0.2921 -0.14605,0.10054 -0.55386,0.46319 -0.742596,1.03223 -0.100541,0.30444 -0.151696,0.49882 -0.165454,0.6297 z m 1.536348,-2.3301 c 0.01236,0 0.02469,0.005 0.03704,0.01 0.452261,0.15029 0.239888,1.14653 0.109009,1.69757 -0.128059,0.54187 -0.537282,1.52012 -0.847373,1.44004 -0.439561,-0.11007 -0.248002,-1.18075 -0.107598,-1.7459 0.126648,-0.50694 0.537281,-1.39735 0.808921,-1.40123 z" />
    <path
       inkscape:connector-curvature="0"
       id="path3372"
       style="fill:#000000;fill-opacity:0.31373004;fill-rule:nonzero;stroke:none;stroke-width:0.35277775"
       d="m 85.200314,171.20384 c -0.187325,-0.018 -0.208138,-0.0607 -0.0042,-0.12665 l 1.163109,-0.375 c 0.03316,0 0.124179,-0.0607 0.08961,0.0275 l -0.735894,2.81129 c -0.04974,0.21096 -0.133704,0.46178 0.252236,0.55527 l 0.271285,0.073 c 0.07056,0.0113 0.103365,0.13511 0.0085,0.14887 l -1.815042,-0.0177 c -0.1651,0.0138 -0.159808,-0.16157 0.0042,-0.17392 l 0.217665,-0.005 c 0.12841,0.005 0.35419,-0.16122 0.425802,-0.4452 l 0.571854,-2.24896 c 0.04269,-0.14323 0,-0.18591 -0.08114,-0.19015 z" />
    <g
       transform="matrix(0.35277777,0,0,0.35277777,-67.185923,-273.11694)"
       id="g3374">
      <path
         inkscape:connector-curvature="0"
         id="path3376"
         style="fill:none;stroke:#ff0000;stroke-width:1.74419999;stroke-linecap:butt;stroke-linejoin:miter;stroke-miterlimit:4;stroke-dasharray:none;stroke-opacity:1"
         d="m 429.855,1269.645 12.008,-12.411" />
    </g>
    <g
       transform="matrix(0.35277777,0,0,0.35277777,-67.185923,-273.11694)"
       id="g3378">
      <path
         inkscape:connector-curvature="0"
         id="path3380"
         style="fill:none;stroke:#ff0000;stroke-width:1.74419999;stroke-linecap:butt;stroke-linejoin:miter;stroke-miterlimit:4;stroke-dasharray:none;stroke-opacity:1"
         d="m 429.453,1257.258 12.305,12.07" />
    </g>
    <g
       transform="matrix(0.35277777,0,0,0.35277777,-67.185923,-273.11694)"
       id="g3382">
      <path
         inkscape:connector-curvature="0"
         id="path3384"
         style="fill:#ff6600;fill-opacity:1;fill-rule:nonzero;stroke:#000000;stroke-width:0.0438693;stroke-linecap:butt;stroke-linejoin:miter;stroke-miterlimit:4;stroke-dasharray:none;stroke-opacity:1"
         d="m 436.629,1159.488 c 0,0 -0.16,-0.156 -0.367,-0.172 -0.211,-0.011 -0.336,0.118 -0.336,0.118 0,0 -0.145,0.179 -0.356,0.179 -0.218,0.02 -0.363,-0.168 -0.363,-0.168 -0.242,-0.211 -0.418,0.039 -0.418,0.039 0,0 -0.055,0.141 -0.266,0.157 -0.207,0.027 -0.324,-0.11 -0.324,-0.11 0,0 -0.199,-0.101 -0.406,-0.058 -0.211,0.039 -0.301,0.195 -0.301,0.195 0,0 -0.133,0.168 -0.332,0.223 -0.207,0.054 -0.351,-0.039 -0.351,-0.039 0,0 -0.207,-0.071 -0.407,0 -0.199,0.062 -0.265,0.238 -0.265,0.238 0,0 -0.11,0.18 -0.297,0.269 -0.195,0.094 -0.352,0.024 -0.352,0.024 0,0 -0.234,-0.039 -0.414,0.058 -0.183,0.102 -0.219,0.278 -0.219,0.278 0,0 -0.07,0.195 -0.25,0.308 -0.175,0.114 -0.347,0.075 -0.347,0.075 0,0 -0.227,0 -0.403,0.121 -0.16,0.129 -0.171,0.312 -0.171,0.312 0,0 -0.043,0.207 -0.2,0.34 -0.164,0.137 -0.336,0.133 -0.336,0.133 0,0 -0.226,0.027 -0.367,0.172 -0.152,0.152 -0.133,0.336 -0.133,0.336 0,0 -0.007,0.211 -0.144,0.375 -0.125,0.16 -0.309,0.171 -0.309,0.171 0,0 -0.215,0.059 -0.336,0.235 -0.117,0.172 -0.074,0.344 -0.074,0.344 0,0 0.016,0.207 -0.094,0.39 -0.101,0.18 -0.269,0.223 -0.269,0.223 0,0 -0.211,0.086 -0.297,0.277 -0.098,0.188 -0.023,0.356 -0.023,0.356 0,0 0.046,0.195 -0.028,0.394 -0.07,0.207 -0.242,0.266 -0.242,0.266 0,0 -0.18,0.125 -0.246,0.332 -0.063,0.195 0.035,0.351 0.035,0.351 0,0 0.086,0.188 0.035,0.387 -0.043,0.215 -0.187,0.301 -0.187,0.301 0,0 -0.176,0.156 -0.203,0.367 -0.024,0.207 0.093,0.34 0.093,0.34 0,0 0.114,0.176 0.098,0.387 -0.004,0.211 -0.141,0.324 -0.141,0.324 0,0 -0.14,0.172 -0.14,0.383 0,0.219 0.152,0.336 0.152,0.336 0,0 0.129,0.148 0.145,0.351 0.023,0.231 -0.086,0.348 -0.086,0.348 0,0 -0.11,0.195 -0.071,0.402 0.024,0.211 0.192,0.297 0.192,0.297 0,0 0.16,0.133 0.215,0.344 0.043,0.203 -0.043,0.348 -0.043,0.348 0,0 -0.075,0.207 -0.012,0.406 0.066,0.199 0.238,0.269 0.238,0.269 0,0 0.18,0.106 0.262,0.293 0.09,0.196 0.02,0.36 0.02,0.36 0,0 -0.047,0.226 0.054,0.406 0.098,0.195 0.274,0.226 0.274,0.226 0,0 0.195,0.075 0.304,0.254 0.121,0.172 0.078,0.348 0.078,0.348 0,0 -0.011,0.227 0.114,0.391 0.129,0.172 0.308,0.187 0.308,0.187 0,0 0.211,0.039 0.348,0.199 0.133,0.157 0.121,0.332 0.121,0.332 0,0 0.023,0.227 0.18,0.368 0.152,0.148 0.324,0.128 0.324,0.128 0,0 0.211,0.02 0.375,0.149 0.164,0.137 0.172,0.32 0.172,0.32 0,0 0.062,0.203 0.234,0.328 0.172,0.133 0.348,0.082 0.348,0.082 0,0 0.203,-0.023 0.39,0.09 0.184,0.11 0.215,0.278 0.215,0.278 0,0 0.09,0.207 0.282,0.3 0.183,0.094 0.355,0.024 0.355,0.024 0,0 0.203,-0.043 0.402,0.027 0.192,0.082 0.262,0.246 0.262,0.246 0,0 0.117,0.188 0.317,0.254 0.203,0.067 0.351,-0.027 0.351,-0.027 0,0 0.195,-0.082 0.402,-0.039 0.211,0.054 0.293,0.211 0.293,0.211 0,0 0.157,0.164 0.364,0.199 0.211,0.035 0.343,-0.078 0.343,-0.078 0,0 0.176,-0.11 0.391,-0.094 0.211,0.02 0.32,0.152 0.32,0.152 0,0 0.168,0.141 0.379,0.153 0.223,0 0.324,-0.141 0.324,-0.141 0,0 0.168,-0.137 0.379,-0.144 0.219,-0.02 0.34,0.101 0.34,0.101 0,0 0.192,0.117 0.403,0.09 0.211,-0.016 0.308,-0.184 0.308,-0.184 0,0 0.137,-0.152 0.348,-0.195 0.203,-0.047 0.351,0.055 0.351,0.055 0,0 0.2,0.078 0.411,0.015 0.199,-0.05 0.269,-0.214 0.269,-0.214 0,0 0.109,-0.184 0.309,-0.254 0.203,-0.082 0.359,0 0.359,0 0,0 0.215,0.039 0.406,-0.039 0.196,-0.094 0.231,-0.278 0.231,-0.278 0,0 0.097,-0.179 0.277,-0.285 0.18,-0.109 0.352,-0.055 0.352,-0.055 0,0 0.222,0.016 0.402,-0.101 0.172,-0.121 0.195,-0.301 0.195,-0.301 0,0 0.051,-0.199 0.215,-0.336 0.164,-0.129 0.336,-0.113 0.336,-0.113 0,0 0.227,0 0.379,-0.149 0.156,-0.148 0.148,-0.332 0.148,-0.332 0,0 0.024,-0.203 0.172,-0.363 0.145,-0.148 0.321,-0.148 0.321,-0.148 0,0 0.215,-0.047 0.343,-0.219 0.137,-0.164 0.098,-0.336 0.098,-0.336 0,0 -0.016,-0.211 0.102,-0.391 0.121,-0.172 0.289,-0.199 0.289,-0.199 0,0 0.211,-0.082 0.32,-0.266 0.098,-0.195 0.035,-0.351 0.035,-0.351 0,0 -0.035,-0.211 0.047,-0.402 0.09,-0.188 0.254,-0.243 0.254,-0.243 0,0 0.199,-0.125 0.269,-0.312 0.075,-0.195 -0.015,-0.363 -0.015,-0.363 0,0 -0.07,-0.192 -0.016,-0.391 0.059,-0.207 0.215,-0.293 0.215,-0.293 0,0 0.176,-0.145 0.219,-0.34 0.035,-0.211 -0.071,-0.359 -0.071,-0.359 0,0 -0.109,-0.176 -0.082,-0.387 0.028,-0.207 0.161,-0.309 0.161,-0.309 0,0 0.16,-0.175 0.16,-0.386 0.004,-0.207 -0.121,-0.336 -0.121,-0.336 0,0 -0.141,-0.153 -0.149,-0.367 -0.008,-0.211 0.121,-0.336 0.121,-0.336 0,0 0.114,-0.196 0.098,-0.403 -0.027,-0.211 -0.184,-0.308 -0.184,-0.308 0,0 -0.152,-0.141 -0.187,-0.344 -0.047,-0.211 0.062,-0.359 0.062,-0.359 0,0 0.082,-0.2 0.028,-0.395 -0.055,-0.211 -0.219,-0.281 -0.219,-0.281 0,0 -0.184,-0.121 -0.254,-0.32 -0.074,-0.2 0.012,-0.352 0.012,-0.352 0,0 0.054,-0.223 -0.043,-0.41 -0.086,-0.192 -0.258,-0.238 -0.258,-0.238 0,0 -0.18,-0.082 -0.289,-0.27 -0.102,-0.18 -0.059,-0.348 -0.059,-0.348 0,0 0.028,-0.226 -0.093,-0.402 -0.114,-0.184 -0.297,-0.195 -0.297,-0.195 0,0 -0.199,-0.059 -0.336,-0.219 -0.129,-0.176 -0.098,-0.348 -0.098,-0.348 0,0 -0.019,-0.218 -0.156,-0.367 -0.145,-0.168 -0.324,-0.156 -0.324,-0.156 0,0 -0.2,-0.02 -0.364,-0.164 -0.156,-0.145 -0.156,-0.321 -0.156,-0.321 0,0 -0.043,-0.226 -0.211,-0.351 -0.176,-0.137 -0.347,-0.102 -0.347,-0.102 0,0 -0.207,0 -0.379,-0.109 -0.18,-0.113 -0.211,-0.293 -0.211,-0.293 0,0 -0.071,-0.203 -0.258,-0.313 -0.18,-0.097 -0.356,-0.05 -0.356,-0.05 0,0 -0.199,0.05 -0.394,-0.043 -0.188,-0.09 -0.242,-0.266 -0.242,-0.266 0,0 -0.121,-0.187 -0.309,-0.258 -0.199,-0.082 -0.351,0 -0.351,0 0,0 -0.207,0.067 -0.403,0.016 -0.211,-0.063 -0.281,-0.207 -0.281,-0.207 0,0 -0.148,-0.195 -0.355,-0.227 -0.196,-0.043 -0.348,0.059 -0.348,0.059 0,0 -0.18,0.105 -0.391,0.066 -0.219,-0.027 -0.32,-0.168 -0.32,-0.168" />
    </g>
    <path
       inkscape:connector-curvature="0"
       id="path3386"
       style="fill:#000000;fill-opacity:0.12941003;fill-rule:nonzero;stroke:none;stroke-width:0.35277775"
       d="m 85.772168,140.30156 -0.03175,0.005 c -0.0095,0 0.02752,-0.005 0.03175,-0.005 z" />
    <path
       inkscape:connector-curvature="0"
       id="path3388"
       style="fill:#000000;fill-opacity:0.31373004;fill-rule:nonzero;stroke:none;stroke-width:0.35277775"
       d="m 86.284753,139.89622 c -0.02893,0.34326 0.06879,1.05551 0.76059,1.02376 0.191558,-0.0109 0.595487,-0.19967 0.79375,-0.46143 0.263525,-0.34325 0.504471,-0.69321 0.621594,-1.11619 0.118533,-0.41204 0.223308,-0.72213 0.106185,-1.31339 -0.03034,-0.16122 -0.133702,-0.51964 -0.571852,-0.57609 -0.35419,-0.0399 -0.620183,0.18345 -0.771877,0.28822 -0.14464,0.0977 -0.541515,0.45332 -0.727429,1.00577 -0.09807,0.29916 -0.148871,0.49072 -0.159809,0.61878 z m 1.500717,-2.27788 c 0.01236,0 0.02469,0.007 0.03598,0.01 0.439561,0.14746 0.234244,1.11901 0.107244,1.65946 -0.126646,0.52917 -0.524933,1.48414 -0.827969,1.40688 -0.430035,-0.10901 -0.2413,-1.15217 -0.104775,-1.70603 0.121357,-0.49354 0.522111,-1.36278 0.789517,-1.36984 z" />
    <path
       inkscape:connector-curvature="0"
       id="path3390"
       style="fill:#000000;fill-opacity:0.31373004;fill-rule:nonzero;stroke:none;stroke-width:0.35277775"
       d="m 85.229243,137.86775 c -0.183446,-0.0152 -0.203906,-0.0564 -0.0042,-0.11994 l 1.137002,-0.37077 c 0.03175,0 0.121356,-0.0579 0.08819,0.0279 l -0.719312,2.74778 c -0.04974,0.20532 -0.130881,0.44909 0.245179,0.54152 l 0.267406,0.073 c 0.06738,0.008 0.100542,0.13088 0.0071,0.14464 l -1.773767,-0.018 c -0.161221,0.0109 -0.155575,-0.15558 0.0028,-0.16934 l 0.212373,-0.006 c 0.126648,0.006 0.347134,-0.15557 0.418748,-0.43391 l 0.558094,-2.19816 c 0.04127,-0.139 0,-0.18168 -0.08114,-0.18592 z" />
    <text
       id="text3400"
       style="font-variant:normal;font-weight:normal;font-size:6.797616px;font-family:Cantarell;-inkscape-font-specification:Cantarell-Regular;writing-mode:lr-tb;fill:#000000;fill-opacity:1;fill-rule:nonzero;stroke:none;stroke-width:0.35277775"
       x="6.6275496"
       y="198.79016">
      <tspan
         style="stroke-width:0.35277775"
         id="tspan3392"
         sodipodi:role="line"
         y="198.79016"
         x="6.6275496 11.012014 14.594355 17.748451 21.629889 25.470543 29.324787 32.478889 36.06123 37.556702 40.010643 41.73724 47.780323">Response time</tspan>
      <tspan
         style="stroke-width:0.35277775"
         id="tspan3394"
         sodipodi:role="line"
         y="204.86478"
         x="13.51339 19.536081 23.01646 26.204544 27.700016 31.601856 35.891148 40.180443">max 3000</tspan>
      <tspan
         style="stroke-width:0.35277775"
         id="tspan3396"
         sodipodi:role="line"
         y="200.97026"
         x="81.105431 84.946083 89.235382">500</tspan>
      <tspan
         style="stroke-width:0.35277775"
         id="tspan3398"
         sodipodi:role="line"
         y="200.74724"
         x="112.02442 116.60602 120.26995 124.11057 128.39989">~2500</tspan>
    </text>
  </g>
</svg>
