<?xml version="1.0" encoding="UTF-8" standalone="no"?>
<!-- Created with Inkscape (http://www.inkscape.org/) -->

<svg
   xmlns:dc="http://purl.org/dc/elements/1.1/"
   xmlns:cc="http://creativecommons.org/ns#"
   xmlns:rdf="http://www.w3.org/1999/02/22-rdf-syntax-ns#"
   xmlns:svg="http://www.w3.org/2000/svg"
   xmlns="http://www.w3.org/2000/svg"
   xmlns:sodipodi="http://sodipodi.sourceforge.net/DTD/sodipodi-0.dtd"
   xmlns:inkscape="http://www.inkscape.org/namespaces/inkscape"
   width="252.99951mm"
   height="131.21251mm"
   viewBox="0 0 252.99951 131.21251"
   version="1.1"
   id="svg16085"
   inkscape:version="0.92.4 5da689c313, 2019-01-14"
   sodipodi:docname="task_timeline.svg"
   inkscape:export-filename="/home/sarah/Documents/BAMB/Project/bamb-adaptation-to-regime-changes/documents/images/task_timeline.png"
   inkscape:export-xdpi="300"
   inkscape:export-ydpi="300">
  <defs
     id="defs16079">
    <clipPath
       clipPathUnits="userSpaceOnUse"
       id="clipPath7012">
      <path
         d="m 0,1495.223 h 431.344 v 140.531 H 0 Z"
         id="path7010"
         inkscape:connector-curvature="0" />
    </clipPath>
    <clipPath
       clipPathUnits="userSpaceOnUse"
       id="clipPath7022">
      <path
         d="M 0,0 H 2384 V 3371 H 0 Z"
         id="path7020"
         inkscape:connector-curvature="0" />
    </clipPath>
    <clipPath
       clipPathUnits="userSpaceOnUse"
       id="clipPath6988">
      <path
         d="m 0,1495.223 h 558.871 v 140.531 H 0 Z"
         id="path6986"
         inkscape:connector-curvature="0" />
    </clipPath>
    <clipPath
       clipPathUnits="userSpaceOnUse"
       id="clipPath6998">
      <path
         d="M 0,0 H 2384 V 3371 H 0 Z"
         id="path6996"
         inkscape:connector-curvature="0" />
    </clipPath>
    <clipPath
       clipPathUnits="userSpaceOnUse"
       id="clipPath6910">
      <path
         d="m 177.016,1662.852 h 634.719 v 140.531 H 177.016 Z"
         id="path6908"
         inkscape:connector-curvature="0" />
    </clipPath>
    <clipPath
       clipPathUnits="userSpaceOnUse"
       id="clipPath6920">
      <path
         d="M 0,0 H 2384 V 3371 H 0 Z"
         id="path6918"
         inkscape:connector-curvature="0" />
    </clipPath>
    <clipPath
       clipPathUnits="userSpaceOnUse"
       id="clipPath6886">
      <path
         d="m 177.016,1663.582 h 634.719 v 140.531 H 177.016 Z"
         id="path6884"
         inkscape:connector-curvature="0" />
    </clipPath>
    <clipPath
       clipPathUnits="userSpaceOnUse"
       id="clipPath6896">
      <path
         d="M 0,0 H 2384 V 3371 H 0 Z"
         id="path6894"
         inkscape:connector-curvature="0" />
    </clipPath>
    <clipPath
       clipPathUnits="userSpaceOnUse"
       id="clipPath6794">
      <path
         d="m 49.941,1495.223 h 634.723 v 140.531 H 49.941 Z"
         id="path6792"
         inkscape:connector-curvature="0" />
    </clipPath>
    <clipPath
       clipPathUnits="userSpaceOnUse"
       id="clipPath6804">
      <path
         d="M 0,0 H 2384 V 3371 H 0 Z"
         id="path6802"
         inkscape:connector-curvature="0" />
    </clipPath>
    <clipPath
       clipPathUnits="userSpaceOnUse"
       id="clipPath6700">
      <path
         d="m 177.016,1494.215 h 634.719 v 140.531 H 177.016 Z"
         id="path6698"
         inkscape:connector-curvature="0" />
    </clipPath>
    <clipPath
       clipPathUnits="userSpaceOnUse"
       id="clipPath6710">
      <path
         d="M 0,0 H 2384 V 3371 H 0 Z"
         id="path6708"
         inkscape:connector-curvature="0" />
    </clipPath>
    <clipPath
       clipPathUnits="userSpaceOnUse"
       id="clipPath6726">
      <path
         d="M 0,0 H 2384 V 3371 H 0 Z"
         id="path6724"
         inkscape:connector-curvature="0" />
    </clipPath>
    <clipPath
       clipPathUnits="userSpaceOnUse"
       id="clipPath6476">
      <path
         d="m 1052.059,1498.609 h 37.008 v 17.906 h -37.008 z"
         id="path6474"
         inkscape:connector-curvature="0" />
    </clipPath>
    <clipPath
       clipPathUnits="userSpaceOnUse"
       id="clipPath6486">
      <path
         d="M 0,0 H 2384 V 3371 H 0 Z"
         id="path6484"
         inkscape:connector-curvature="0" />
    </clipPath>
  </defs>
  <sodipodi:namedview
     id="base"
     pagecolor="#ffffff"
     bordercolor="#666666"
     borderopacity="1.0"
     inkscape:pageopacity="0.0"
     inkscape:pageshadow="2"
     inkscape:zoom="0.7"
     inkscape:cx="186.23552"
     inkscape:cy="393.51574"
     inkscape:document-units="mm"
     inkscape:current-layer="layer1"
     showgrid="false"
     fit-margin-top="0"
     fit-margin-left="0"
     fit-margin-right="0"
     fit-margin-bottom="0"
     inkscape:window-width="1920"
     inkscape:window-height="1028"
     inkscape:window-x="0"
     inkscape:window-y="0"
     inkscape:window-maximized="1" />
  <metadata
     id="metadata16082">
    <rdf:RDF>
      <cc:Work
         rdf:about="">
        <dc:format>image/svg+xml</dc:format>
        <dc:type
           rdf:resource="http://purl.org/dc/dcmitype/StillImage" />
        <dc:title />
      </cc:Work>
    </rdf:RDF>
  </metadata>
  <g
     inkscape:label="Layer 1"
     inkscape:groupmode="layer"
     id="layer1"
     transform="translate(83.993318,-108.92946)">
    <path
       inkscape:connector-curvature="0"
       id="path6632"
       style="fill:#262626;fill-opacity:1;fill-rule:nonzero;stroke:none;stroke-width:0.35277778"
       d="m -75.392949,152.91485 c -0.250825,0 -0.440972,0.12418 -0.567972,0.37218 -0.126647,0.248 -0.190147,0.62018 -0.190147,1.11901 0,0.49601 0.0635,0.86819 0.190147,1.11619 0.127,0.248 0.317147,0.37218 0.567972,0.37218 0.254706,0 0.445206,-0.12418 0.571853,-0.37218 0.126647,-0.248 0.190147,-0.62018 0.190147,-1.11619 0,-0.49883 -0.0635,-0.87101 -0.190147,-1.11901 -0.126647,-0.248 -0.317147,-0.37218 -0.571853,-0.37218 z m 0,-0.38841 c 0.4064,0 0.716492,0.16122 0.929922,0.48225 0.215195,0.32103 0.322792,0.78669 0.322792,1.39735 0,0.6089 -0.107597,1.07492 -0.322792,1.39594 -0.21343,0.32103 -0.523522,0.48084 -0.929922,0.48084 -0.405341,0 -0.715433,-0.15981 -0.928864,-0.48084 -0.214841,-0.32102 -0.321027,-0.78704 -0.321027,-1.39594 0,-0.61066 0.106186,-1.07632 0.321027,-1.39735 0.213431,-0.32103 0.523523,-0.48225 0.928864,-0.48225 z" />
    <path
       inkscape:connector-curvature="0"
       id="path6634"
       style="fill:#262626;fill-opacity:1;fill-rule:nonzero;stroke:none;stroke-width:0.35277778"
       d="m -73.280516,155.59667 h 0.512587 v 0.61595 h -0.512587 z" />
    <path
       inkscape:connector-curvature="0"
       id="path6636"
       style="fill:#262626;fill-opacity:1;fill-rule:nonzero;stroke:none;stroke-width:0.35277778"
       d="m -71.27956,155.80057 h 1.708855 v 0.41205 h -2.298699 v -0.41205 c 0.185913,-0.19297 0.439561,-0.4505 0.760588,-0.77435 0.321028,-0.32526 0.522464,-0.5334 0.605014,-0.62865 0.155928,-0.17497 0.265995,-0.3249 0.328084,-0.44626 0.06209,-0.12277 0.09349,-0.24271 0.09349,-0.35983 0,-0.19297 -0.06738,-0.34996 -0.202495,-0.47131 -0.135114,-0.12101 -0.310091,-0.18168 -0.527755,-0.18168 -0.152753,0 -0.315384,0.0261 -0.486481,0.0797 -0.169333,0.054 -0.351366,0.13512 -0.545747,0.24271 v -0.49494 c 0.197203,-0.0783 0.380294,-0.139 0.552803,-0.17886 0.170744,-0.0402 0.32773,-0.0607 0.4699,-0.0607 0.376061,0 0.675216,0.0935 0.897114,0.28222 0.223308,0.18627 0.334786,0.4371 0.334786,0.75107 0,0.14887 -0.02752,0.28963 -0.08396,0.42333 -0.05539,0.13229 -0.157339,0.28928 -0.303389,0.47131 -0.04127,0.0466 -0.169334,0.18168 -0.385586,0.4064 -0.216606,0.22331 -0.522464,0.53728 -0.916517,0.9398 z" />
    <path
       inkscape:connector-curvature="0"
       id="path6638"
       style="fill:#262626;fill-opacity:1;fill-rule:nonzero;stroke:none;stroke-width:0.35277778"
       d="m -68.537418,152.591 h 1.922638 v 0.41346 h -1.474611 v 0.88758 c 0.07161,-0.025 0.141817,-0.0427 0.213431,-0.055 0.07197,-0.0127 0.142169,-0.018 0.213783,-0.018 0.403578,0 0.723547,0.11148 0.960261,0.33196 0.235656,0.2219 0.354189,0.52106 0.354189,0.89994 0,0.38841 -0.121003,0.6918 -0.363714,0.90805 -0.242358,0.21625 -0.5842,0.32385 -1.025172,0.32385 -0.153105,0 -0.307269,-0.0138 -0.465667,-0.0384 -0.157338,-0.0261 -0.319969,-0.0649 -0.487891,-0.11713 v -0.49212 c 0.14605,0.0787 0.296333,0.13794 0.450497,0.17639 0.155928,0.0388 0.319617,0.0579 0.492125,0.0579 0.279753,0 0.50165,-0.073 0.663928,-0.22048 0.164041,-0.14605 0.245533,-0.34572 0.245533,-0.59796 0,-0.25224 -0.08149,-0.45191 -0.245533,-0.59796 -0.162278,-0.14746 -0.384175,-0.2219 -0.663928,-0.2219 -0.130881,0 -0.262114,0.0152 -0.391583,0.0441 -0.12947,0.0289 -0.263173,0.0744 -0.398286,0.13511 z" />
    <path
       inkscape:connector-curvature="0"
       id="path6640"
       style="fill:#262626;fill-opacity:1;fill-rule:nonzero;stroke:none;stroke-width:0.35277778"
       d="m -75.392949,138.82984 c -0.250825,0 -0.440972,0.12418 -0.567972,0.37219 -0.126647,0.248 -0.190147,0.62159 -0.190147,1.11901 0,0.496 0.0635,0.86818 0.190147,1.1176 0.127,0.248 0.317147,0.37218 0.567972,0.37218 0.254706,0 0.445206,-0.12418 0.571853,-0.37218 0.126647,-0.24942 0.190147,-0.6216 0.190147,-1.1176 0,-0.49742 -0.0635,-0.87101 -0.190147,-1.11901 -0.126647,-0.24801 -0.317147,-0.37219 -0.571853,-0.37219 z m 0,-0.38699 c 0.4064,0 0.716492,0.15981 0.929922,0.48083 0.215195,0.32103 0.322792,0.78705 0.322792,1.39736 0,0.61065 -0.107597,1.07491 -0.322792,1.39594 -0.21343,0.32103 -0.523522,0.48083 -0.929922,0.48083 -0.405341,0 -0.715433,-0.1598 -0.928864,-0.48083 -0.214841,-0.32103 -0.321027,-0.78529 -0.321027,-1.39594 0,-0.61031 0.106186,-1.07633 0.321027,-1.39736 0.213431,-0.32102 0.523523,-0.48083 0.928864,-0.48083 z" />
    <path
       inkscape:connector-curvature="0"
       id="path6642"
       style="fill:#262626;fill-opacity:1;fill-rule:nonzero;stroke:none;stroke-width:0.35277778"
       d="m -73.280516,141.51166 h 0.512587 v 0.61595 h -0.512587 z" />
    <path
       inkscape:connector-curvature="0"
       id="path6644"
       style="fill:#262626;fill-opacity:1;fill-rule:nonzero;stroke:none;stroke-width:0.35277778"
       d="m -71.697249,138.50741 h 1.923697 v 0.41204 h -1.474258 v 0.88759 c 0.0702,-0.0247 0.141817,-0.0427 0.212019,-0.0536 0.07161,-0.0127 0.143581,-0.018 0.213784,-0.018 0.404989,0 0.724958,0.11006 0.960261,0.33196 0.237066,0.22049 0.354189,0.52105 0.354189,0.89852 0,0.39018 -0.121003,0.69321 -0.363714,0.90947 -0.242359,0.21519 -0.5842,0.32243 -1.025172,0.32243 -0.153106,0 -0.30727,-0.0123 -0.464609,-0.0385 -0.158397,-0.0261 -0.321027,-0.0649 -0.48895,-0.11571 v -0.49354 c 0.14605,0.0801 0.296334,0.13794 0.451909,0.1778 0.154516,0.0388 0.318205,0.0579 0.492125,0.0579 0.279752,0 0.499886,-0.073 0.663927,-0.22049 0.162631,-0.14746 0.244123,-0.34713 0.244123,-0.59937 0,-0.25223 -0.08149,-0.45049 -0.244123,-0.59795 -0.164041,-0.14747 -0.384175,-0.22049 -0.663927,-0.22049 -0.131234,0 -0.262114,0.0138 -0.392995,0.0427 -0.129469,0.0289 -0.261761,0.0744 -0.398286,0.13652 z" />
    <path
       inkscape:connector-curvature="0"
       id="path6646"
       style="fill:#262626;fill-opacity:1;fill-rule:nonzero;stroke:none;stroke-width:0.35277778"
       d="m -67.495666,138.82984 c -0.251883,0 -0.440972,0.12418 -0.56903,0.37219 -0.125236,0.248 -0.188736,0.62159 -0.188736,1.11901 0,0.496 0.0635,0.86818 0.188736,1.1176 0.128058,0.248 0.317147,0.37218 0.56903,0.37218 0.255059,0 0.445206,-0.12418 0.572206,-0.37218 0.126647,-0.24942 0.190147,-0.6216 0.190147,-1.1176 0,-0.49742 -0.0635,-0.87101 -0.190147,-1.11901 -0.127,-0.24801 -0.317147,-0.37219 -0.572206,-0.37219 z m 0,-0.38699 c 0.406753,0 0.716845,0.15981 0.930275,0.48083 0.215195,0.32103 0.321028,0.78705 0.321028,1.39736 0,0.61065 -0.105833,1.07491 -0.321028,1.39594 -0.21343,0.32103 -0.523522,0.48083 -0.930275,0.48083 -0.404989,0 -0.71508,-0.1598 -0.928511,-0.48083 -0.215194,-0.32103 -0.321028,-0.78529 -0.321028,-1.39594 0,-0.61031 0.105834,-1.07633 0.321028,-1.39736 0.213431,-0.32102 0.523522,-0.48083 0.928511,-0.48083 z" />
    <path
       inkscape:connector-curvature="0"
       id="path6648"
       style="fill:#262626;fill-opacity:1;fill-rule:nonzero;stroke:none;stroke-width:0.35277778"
       d="m -75.392949,124.7466 c -0.250825,0 -0.440972,0.12383 -0.567972,0.37183 -0.126647,0.248 -0.190147,0.62018 -0.190147,1.11901 0,0.49601 0.0635,0.86819 0.190147,1.11619 0.127,0.248 0.317147,0.37218 0.567972,0.37218 0.254706,0 0.445206,-0.12418 0.571853,-0.37218 0.126647,-0.248 0.190147,-0.62018 0.190147,-1.11619 0,-0.49883 -0.0635,-0.87101 -0.190147,-1.11901 -0.126647,-0.248 -0.317147,-0.37183 -0.571853,-0.37183 z m 0,-0.38876 c 0.4064,0 0.716492,0.16122 0.929922,0.48225 0.215195,0.32103 0.322792,0.78705 0.322792,1.39735 0,0.60925 -0.107597,1.07492 -0.322792,1.39594 -0.21343,0.32103 -0.523522,0.48084 -0.929922,0.48084 -0.405341,0 -0.715433,-0.15981 -0.928864,-0.48084 -0.214841,-0.32102 -0.321027,-0.78669 -0.321027,-1.39594 0,-0.6103 0.106186,-1.07632 0.321027,-1.39735 0.213431,-0.32103 0.523523,-0.48225 0.928864,-0.48225 z" />
    <path
       inkscape:connector-curvature="0"
       id="path6650"
       style="fill:#262626;fill-opacity:1;fill-rule:nonzero;stroke:none;stroke-width:0.35277778"
       d="m -73.280516,127.42807 h 0.512587 v 0.61595 h -0.512587 z" />
    <path
       inkscape:connector-curvature="0"
       id="path6652"
       style="fill:#262626;fill-opacity:1;fill-rule:nonzero;stroke:none;stroke-width:0.35277778"
       d="m -71.825307,124.42275 h 2.327627 v 0.2092 l -1.314802,3.41207 h -0.511175 l 1.237544,-3.20816 h -1.739194 z" />
    <path
       inkscape:connector-curvature="0"
       id="path6654"
       style="fill:#262626;fill-opacity:1;fill-rule:nonzero;stroke:none;stroke-width:0.35277778"
       d="m -68.537418,124.42275 h 1.922638 v 0.41311 h -1.474611 v 0.88758 c 0.07161,-0.0247 0.141817,-0.0427 0.213431,-0.055 0.07197,-0.0109 0.142169,-0.018 0.213783,-0.018 0.403578,0 0.723547,0.11183 0.960261,0.33196 0.235656,0.2219 0.354189,0.52106 0.354189,0.89994 0,0.38876 -0.121003,0.6918 -0.363714,0.9084 -0.242358,0.21626 -0.5842,0.3235 -1.025172,0.3235 -0.153105,0 -0.307269,-0.0123 -0.465667,-0.0384 -0.157338,-0.0261 -0.319969,-0.0649 -0.487891,-0.11713 v -0.49177 c 0.14605,0.0783 0.296333,0.13759 0.450497,0.17639 0.155928,0.0384 0.319617,0.0579 0.492125,0.0579 0.279753,0 0.50165,-0.073 0.663928,-0.22049 0.164041,-0.14605 0.245533,-0.34607 0.245533,-0.59831 0,-0.25224 -0.08149,-0.45191 -0.245533,-0.59796 -0.162278,-0.14746 -0.384175,-0.2219 -0.663928,-0.2219 -0.130881,0 -0.262114,0.0152 -0.391583,0.0441 -0.12947,0.0289 -0.263173,0.0744 -0.398286,0.13512 z" />
    <path
       inkscape:connector-curvature="0"
       id="path6656"
       style="fill:#262626;fill-opacity:1;fill-rule:nonzero;stroke:none;stroke-width:0.35277778"
       d="m -83.36361,191.78532 h 1.484136 v -0.6724 c 0,-0.24835 -0.06491,-0.44097 -0.192969,-0.57608 -0.12947,-0.13653 -0.312914,-0.20391 -0.549628,-0.20391 -0.237067,0 -0.4191,0.0674 -0.548569,0.20391 -0.128059,0.13511 -0.19297,0.32773 -0.19297,0.57608 z m -0.439561,0.53445 v -1.20685 c 0,-0.44238 0.100542,-0.77752 0.300567,-1.0033 0.201083,-0.22754 0.494594,-0.34043 0.880533,-0.34043 0.38982,0 0.683331,0.11289 0.883356,0.34043 0.198261,0.22578 0.298802,0.56092 0.298802,1.0033 v 0.6724 h 1.586089 v 0.53445 z" />
    <path
       inkscape:connector-curvature="0"
       id="path6658"
       style="fill:#262626;fill-opacity:1;fill-rule:nonzero;stroke:none;stroke-width:0.35277778"
       d="m -82.361721,187.3576 c -0.03175,0.055 -0.05362,0.1143 -0.06879,0.17921 -0.01517,0.0646 -0.02364,0.13512 -0.02364,0.21202 0,0.27587 0.08961,0.48648 0.268817,0.63394 0.179211,0.14747 0.436739,0.22049 0.771525,0.22049 h 1.559983 v 0.49071 h -2.961216 v -0.49071 h 0.460022 c -0.18027,-0.10195 -0.313972,-0.23566 -0.400756,-0.39829 -0.08678,-0.1651 -0.13088,-0.36371 -0.13088,-0.59937 0,-0.0332 0.0025,-0.0702 0.0067,-0.11006 0.0042,-0.0416 0.0095,-0.0854 0.0194,-0.13512 l 0.498828,-0.004 z" />
    <path
       inkscape:connector-curvature="0"
       id="path6660"
       style="fill:#262626;fill-opacity:1;fill-rule:nonzero;stroke:none;stroke-width:0.35277778"
       d="m -83.962979,185.67767 c 0.404989,0.23707 0.806097,0.41205 1.202972,0.52776 0.396875,0.11465 0.799394,0.1711 1.205794,0.1711 0.407812,0 0.810331,-0.0579 1.210028,-0.17357 0.399345,-0.11571 0.801864,-0.29104 1.205795,-0.52529 v 0.4244 c -0.414867,0.26352 -0.822678,0.46178 -1.222375,0.59266 -0.399698,0.13229 -0.797984,0.19721 -1.193448,0.19721 -0.392641,0 -0.788105,-0.0649 -1.186391,-0.1958 -0.399697,-0.13088 -0.807509,-0.32949 -1.222375,-0.59407 z" />
    <path
       inkscape:connector-curvature="0"
       id="path6662"
       style="fill:#262626;fill-opacity:1;fill-rule:nonzero;stroke:none;stroke-width:0.35277778"
       d="m -82.361721,183.01667 c -0.03175,0.0554 -0.05362,0.11465 -0.06879,0.17921 -0.01517,0.0649 -0.02364,0.13512 -0.02364,0.21237 0,0.27552 0.08961,0.48649 0.268817,0.63395 0.179211,0.14746 0.436739,0.22189 0.771525,0.22189 h 1.559983 v 0.48895 h -2.961216 v -0.48895 h 0.460022 c -0.18027,-0.10336 -0.313972,-0.23706 -0.400756,-0.39969 -0.08678,-0.16546 -0.13088,-0.36407 -0.13088,-0.59937 0,-0.0332 0.0025,-0.0706 0.0067,-0.11042 0.0042,-0.0413 0.0095,-0.0854 0.0194,-0.13512 l 0.498828,-0.004 z" />
    <path
       inkscape:connector-curvature="0"
       id="path6664"
       style="fill:#262626;fill-opacity:1;fill-rule:nonzero;stroke:none;stroke-width:0.35277778"
       d="m -81.456493,179.97396 h 0.238478 v 2.23803 c 0.334786,-0.0205 0.589844,-0.12277 0.766233,-0.30304 0.174978,-0.18062 0.263172,-0.43145 0.263172,-0.7553 0,-0.18591 -0.02328,-0.36795 -0.06879,-0.54292 -0.04551,-0.17498 -0.114652,-0.34996 -0.206727,-0.52353 h 0.460022 c 0.07444,0.17498 0.131233,0.35419 0.169686,0.53729 0.03845,0.18344 0.05786,0.36935 0.05786,0.55809 0,0.47272 -0.136525,0.84772 -0.412045,1.12324 -0.275519,0.27693 -0.6477,0.41487 -1.1176,0.41487 -0.483658,0 -0.868186,-0.13123 -1.15323,-0.39299 -0.285398,-0.26176 -0.427214,-0.61595 -0.427214,-1.05975 0,-0.39934 0.128058,-0.71367 0.384175,-0.9465 0.256469,-0.23142 0.605014,-0.34749 1.045986,-0.34749 z m -0.143228,0.48648 c -0.265994,0.004 -0.478014,0.0787 -0.636764,0.22331 -0.158397,0.14605 -0.238125,0.33902 -0.238125,0.57891 0,0.27129 0.07691,0.48895 0.230011,0.65158 0.154164,0.16263 0.369359,0.25647 0.649111,0.28116 z" />
    <path
       inkscape:connector-curvature="0"
       id="path6666"
       style="fill:#262626;fill-opacity:1;fill-rule:nonzero;stroke:none;stroke-width:0.35277778"
       d="m -82.81504,179.45855 v -0.48753 l 2.311047,-0.60784 -2.311047,-0.60501 v -0.57468 l 2.311047,-0.60748 -2.311047,-0.60643 v -0.48648 l 2.961216,0.77435 v 0.57467 l -2.428169,0.63677 2.428169,0.64064 v 0.57468 z" />
    <path
       inkscape:connector-curvature="0"
       id="path6668"
       style="fill:#262626;fill-opacity:1;fill-rule:nonzero;stroke:none;stroke-width:0.35277778"
       d="m -81.342193,173.39819 c 0,0.39264 0.04551,0.66533 0.135114,0.81703 0.0896,0.1531 0.242711,0.22895 0.460375,0.22895 0.172155,0 0.310091,-0.0579 0.410633,-0.1711 0.101953,-0.1143 0.151694,-0.26846 0.151694,-0.46425 0,-0.27023 -0.09525,-0.48648 -0.286808,-0.65052 -0.191558,-0.16263 -0.444853,-0.24377 -0.762,-0.24377 h -0.109008 z m -0.201083,-0.97014 h 1.689452 v 0.48648 h -0.449086 c 0.179211,0.11006 0.312914,0.24941 0.398286,0.41451 0.08537,0.16686 0.128059,0.36936 0.128059,0.60925 0,0.30303 -0.08537,0.54433 -0.255059,0.72355 -0.170744,0.17921 -0.398286,0.26846 -0.684741,0.26846 -0.331964,0 -0.582789,-0.11148 -0.752475,-0.33479 -0.169334,-0.22331 -0.253648,-0.55668 -0.253648,-0.99906 v -0.68192 h -0.04798 c -0.22472,0 -0.398286,0.073 -0.521053,0.22048 -0.121356,0.14746 -0.183092,0.35419 -0.183092,0.61983 0,0.16969 0.02046,0.33514 0.06032,0.49636 0.04163,0.15981 0.101953,0.31397 0.183445,0.46144 h -0.450498 c -0.06914,-0.1778 -0.119944,-0.34996 -0.154516,-0.51788 -0.03457,-0.16828 -0.0508,-0.33091 -0.0508,-0.48931 0,-0.42862 0.111478,-0.74965 0.333375,-0.96061 0.221897,-0.21202 0.558094,-0.31679 1.010003,-0.31679 z" />
    <path
       inkscape:connector-curvature="0"
       id="path6670"
       style="fill:#262626;fill-opacity:1;fill-rule:nonzero;stroke:none;stroke-width:0.35277778"
       d="m -82.361721,169.70919 c -0.03175,0.0536 -0.05362,0.1143 -0.06879,0.1778 -0.01517,0.0646 -0.02364,0.13476 -0.02364,0.21202 0,0.27552 0.08961,0.48789 0.268817,0.63394 0.179211,0.14746 0.436739,0.2219 0.771525,0.2219 h 1.559983 v 0.4893 h -2.961216 v -0.4893 h 0.460022 c -0.18027,-0.10337 -0.313972,-0.23566 -0.400756,-0.3997 -0.08678,-0.16404 -0.13088,-0.36371 -0.13088,-0.59796 0,-0.0346 0.0025,-0.0702 0.0067,-0.11183 0.0042,-0.0399 0.0095,-0.0854 0.0194,-0.13476 h 0.498828 z" />
    <path
       inkscape:connector-curvature="0"
       id="path6672"
       style="fill:#262626;fill-opacity:1;fill-rule:nonzero;stroke:none;stroke-width:0.35277778"
       d="m -82.365954,167.24927 h -1.604081 v -0.48648 h 4.116211 v 0.48648 h -0.443794 c 0.176389,0.10195 0.307622,0.23142 0.392994,0.38735 0.08537,0.15557 0.128059,0.3429 0.128059,0.56197 0,0.35843 -0.141817,0.64911 -0.427214,0.87525 -0.286456,0.22471 -0.66287,0.33619 -1.128536,0.33619 -0.465667,0 -0.84067,-0.11148 -1.126067,-0.33619 -0.285044,-0.22614 -0.428272,-0.51682 -0.428272,-0.87525 0,-0.21907 0.04269,-0.4064 0.128058,-0.56197 0.08537,-0.15593 0.216253,-0.2854 0.392642,-0.38735 z m 1.033639,1.6577 c 0.358069,0 0.639233,-0.073 0.84208,-0.22048 0.203906,-0.14747 0.305858,-0.34996 0.305858,-0.60608 0,-0.25788 -0.101952,-0.46037 -0.305858,-0.60783 -0.202847,-0.14887 -0.484011,-0.22331 -0.84208,-0.22331 -0.357011,0 -0.638175,0.0744 -0.842081,0.22331 -0.203905,0.14746 -0.305858,0.34995 -0.305858,0.60783 0,0.25612 0.101953,0.45861 0.305858,0.60608 0.203906,0.14746 0.48507,0.22048 0.842081,0.22048 z" />
    <path
       inkscape:connector-curvature="0"
       id="path6674"
       style="fill:#262626;fill-opacity:1;fill-rule:nonzero;stroke:none;stroke-width:0.35277778"
       d="m -83.993318,165.1326 h 5.416903 v 0.44909 h -5.416903 z" />
    <path
       inkscape:connector-curvature="0"
       id="path6676"
       style="fill:#262626;fill-opacity:1;fill-rule:nonzero;stroke:none;stroke-width:0.35277778"
       d="m -82.702151,161.80344 h 0.45473 c -0.07585,0.13758 -0.132292,0.27552 -0.170744,0.4131 -0.0374,0.13794 -0.05644,0.27834 -0.05644,0.4191 0,0.31538 0.100542,0.56092 0.300214,0.7359 0.200025,0.17497 0.480836,0.26176 0.842081,0.26176 0.362302,0 0.643466,-0.0868 0.843138,-0.26176 0.200025,-0.17498 0.300567,-0.42052 0.300567,-0.7359 0,-0.14076 -0.0194,-0.28116 -0.05786,-0.4191 -0.0374,-0.13758 -0.09384,-0.27552 -0.170745,-0.4131 h 0.450497 c 0.0635,0.13476 0.110067,0.27552 0.141817,0.42157 0.03316,0.14464 0.04833,0.30021 0.04833,0.46425 0,0.44662 -0.139348,0.80081 -0.420159,1.06398 -0.279753,0.26176 -0.658989,0.39264 -1.135591,0.39264 -0.482248,0 -0.862542,-0.13229 -1.138414,-0.39687 -0.278342,-0.266 -0.415925,-0.62971 -0.415925,-1.09255 0,-0.14888 0.01517,-0.29493 0.04657,-0.43851 0.03034,-0.14181 0.07585,-0.28116 0.137937,-0.41451 z" />
    <path
       inkscape:connector-curvature="0"
       id="path6678"
       style="fill:#262626;fill-opacity:1;fill-rule:nonzero;stroke:none;stroke-width:0.35277778"
       d="m -81.640996,158.49332 h 1.787172 v 0.48649 h -1.772002 c -0.279753,0 -0.489303,0.055 -0.628298,0.16368 -0.139347,0.11042 -0.20955,0.27447 -0.20955,0.49213 0,0.26317 0.08396,0.47131 0.252236,0.623 0.166512,0.15135 0.394053,0.22719 0.683331,0.22719 h 1.674283 v 0.48931 h -4.116211 v -0.48931 h 1.615017 c -0.178858,-0.11712 -0.31115,-0.25364 -0.399345,-0.41204 -0.08819,-0.15699 -0.132291,-0.33902 -0.132291,-0.54575 0,-0.34008 0.104422,-0.59796 0.315383,-0.77293 0.210961,-0.17357 0.521053,-0.26177 0.930275,-0.26177 z" />
    <path
       inkscape:connector-curvature="0"
       id="path6680"
       style="fill:#262626;fill-opacity:1;fill-rule:nonzero;stroke:none;stroke-width:0.35277778"
       d="m -82.47461,156.37525 c 0,0.26035 0.101953,0.46707 0.305859,0.61877 0.203905,0.15134 0.482247,0.22719 0.836436,0.22719 0.354189,0 0.633941,-0.0744 0.837847,-0.22578 0.203905,-0.15028 0.305858,-0.35842 0.305858,-0.62018 0,-0.25929 -0.103364,-0.46461 -0.307269,-0.61595 -0.203906,-0.1517 -0.483659,-0.22754 -0.836436,-0.22754 -0.349956,0 -0.628298,0.0758 -0.833614,0.22754 -0.205317,0.15134 -0.308681,0.35666 -0.308681,0.61595 z m -0.412044,0 c 0,-0.42298 0.137583,-0.7553 0.413103,-0.99766 0.274461,-0.2413 0.654755,-0.36265 1.141236,-0.36265 0.485069,0 0.865363,0.12135 1.142294,0.36265 0.275519,0.24236 0.413456,0.57468 0.413456,0.99766 0,0.42439 -0.137937,0.75776 -0.413456,0.99906 -0.276931,0.23989 -0.657225,0.3609 -1.142294,0.3609 -0.486481,0 -0.866775,-0.12101 -1.141236,-0.3609 -0.27552,-0.2413 -0.413103,-0.57467 -0.413103,-0.99906 z" />
    <path
       inkscape:connector-curvature="0"
       id="path6682"
       style="fill:#262626;fill-opacity:1;fill-rule:nonzero;stroke:none;stroke-width:0.35277778"
       d="m -82.81504,154.20884 v -0.48648 h 2.961216 v 0.48648 z m -1.154995,0 v -0.48648 h 0.617361 v 0.48648 z" />
    <path
       inkscape:connector-curvature="0"
       id="path6684"
       style="fill:#262626;fill-opacity:1;fill-rule:nonzero;stroke:none;stroke-width:0.35277778"
       d="m -82.702151,150.57099 h 0.45473 c -0.07585,0.13759 -0.132292,0.27552 -0.170744,0.41487 -0.0374,0.13758 -0.05644,0.27693 -0.05644,0.41875 0,0.31573 0.100542,0.56091 0.300214,0.73589 0.200025,0.17498 0.480836,0.26176 0.842081,0.26176 0.362302,0 0.643466,-0.0868 0.843138,-0.26176 0.200025,-0.17498 0.300567,-0.42016 0.300567,-0.73589 0,-0.14182 -0.0194,-0.28117 -0.05786,-0.41875 -0.0374,-0.13935 -0.09384,-0.27728 -0.170745,-0.41487 h 0.450497 c 0.0635,0.13618 0.110067,0.27693 0.141817,0.42298 0.03316,0.14464 0.04833,0.29916 0.04833,0.46285 0,0.44662 -0.139348,0.80222 -0.420159,1.06539 -0.279753,0.26176 -0.658989,0.39264 -1.135591,0.39264 -0.482248,0 -0.862542,-0.13229 -1.138414,-0.39829 -0.278342,-0.26458 -0.415925,-0.6297 -0.415925,-1.09114 0,-0.14887 0.01517,-0.29492 0.04657,-0.4385 0.03034,-0.14323 0.07585,-0.28081 0.137937,-0.41593 z" />
    <path
       inkscape:connector-curvature="0"
       id="path6686"
       style="fill:#262626;fill-opacity:1;fill-rule:nonzero;stroke:none;stroke-width:0.35277778"
       d="m -81.456493,147.19068 h 0.238478 v 2.23767 c 0.334786,-0.0205 0.589844,-0.12242 0.766233,-0.30304 0.174978,-0.18062 0.263172,-0.43145 0.263172,-0.7553 0,-0.18591 -0.02328,-0.36794 -0.06879,-0.54292 -0.04551,-0.17498 -0.114652,-0.34996 -0.206727,-0.52211 h 0.460022 c 0.07444,0.17356 0.131233,0.35278 0.169686,0.53728 0.03845,0.18344 0.05786,0.36936 0.05786,0.55668 0,0.47272 -0.136525,0.84773 -0.412045,1.12325 -0.275519,0.27693 -0.6477,0.41486 -1.1176,0.41486 -0.483658,0 -0.868186,-0.13088 -1.15323,-0.39264 -0.285398,-0.26211 -0.427214,-0.6163 -0.427214,-1.05974 0,-0.39829 0.128058,-0.71403 0.384175,-0.94545 0.256469,-0.23283 0.605014,-0.34854 1.045986,-0.34854 z m -0.143228,0.48648 c -0.265994,0.004 -0.478014,0.0783 -0.636764,0.22436 -0.158397,0.14464 -0.238125,0.33761 -0.238125,0.5775 0,0.27164 0.07691,0.4893 0.230011,0.65194 0.154164,0.16263 0.369359,0.25752 0.649111,0.28222 z" />
    <path
       inkscape:connector-curvature="0"
       id="path6688"
       style="fill:#262626;fill-opacity:1;fill-rule:nonzero;stroke:none;stroke-width:0.35277778"
       d="m -82.31339,146.32919 v -3.39125 h 0.444852 v 3.39125 z m 1.080205,0 v -3.39125 h 0.449439 v 3.39125 z" />
    <path
       inkscape:connector-curvature="0"
       id="path6690"
       style="fill:#262626;fill-opacity:1;fill-rule:nonzero;stroke:none;stroke-width:0.35277778"
       d="m -83.276826,140.51118 1.966383,0.72637 v -1.45238 z m -0.526345,0.30198 v -0.60501 l 3.949347,-1.50495 v 0.55386 l -1.012825,0.36124 v 1.77906 l 1.012825,0.35948 v 0.56374 z" />
    <path
       inkscape:connector-curvature="0"
       id="path6692"
       style="fill:#262626;fill-opacity:1;fill-rule:nonzero;stroke:none;stroke-width:0.35277778"
       d="m -83.962979,138.22377 v -0.42333 c 0.414866,-0.26458 0.822678,-0.46143 1.222375,-0.59373 0.398286,-0.13088 0.79375,-0.1972 1.186391,-0.1972 0.395464,0 0.79375,0.0663 1.193448,0.1972 0.399697,0.1323 0.807508,0.32915 1.222375,0.59373 v 0.42333 c -0.403931,-0.23424 -0.80645,-0.40922 -1.205795,-0.52528 -0.399697,-0.11571 -0.802216,-0.17357 -1.210028,-0.17357 -0.4064,0 -0.808919,0.0579 -1.205794,0.17357 -0.396875,0.11606 -0.797983,0.29104 -1.202972,0.52528 z" />
    <g
       clip-path="url(#clipPath6700)"
       id="g6696"
       transform="matrix(0.35277777,0,0,0.35277777,-123.34462,-411.67281)">
      <g
         id="g6702">
        <g
           id="g6704">
          <g
             clip-path="url(#clipPath6710)"
             id="g6706">
            <g
               id="g6712">
              <g
                 id="g6714">
                <path
                   inkscape:connector-curvature="0"
                   id="path6716"
                   style="fill:none;stroke:#1a1a1a;stroke-width:3.41246796;stroke-linecap:butt;stroke-linejoin:round;stroke-miterlimit:4;stroke-dasharray:12.626131, 5.459949;stroke-dashoffset:0;stroke-opacity:1"
                   d="M 684.664,1628.359 V 1500.602" />
              </g>
            </g>
          </g>
        </g>
      </g>
      <g
         id="g6718">
        <g
           id="g6720">
          <g
             clip-path="url(#clipPath6726)"
             id="g6722">
            <g
               id="g6728">
              <g
                 id="g6730">
                <path
                   inkscape:connector-curvature="0"
                   id="path6732"
                   style="fill:none;stroke:#4c72b0;stroke-width:1.70623398;stroke-linecap:round;stroke-linejoin:round;stroke-miterlimit:4;stroke-dasharray:none;stroke-opacity:1"
                   d="m 176.379,1612.391 h 12.707 l 0.637,-95.817 h 12.07 l 0.637,95.817 h 3.175 l 0.637,-95.817 h 19.059 l 0.637,95.817 h 1.269 l 0.637,-95.817 h 11.433 l 0.637,95.817 h 19.063 l 0.632,-95.817 h 26.688 l 0.633,95.817 h 3.175 l 0.637,-95.817 h 2.543 l 0.633,95.817 h 12.707 l 0.637,-95.817 h 10.164 l 0.636,95.817 h 37.485 l 0.637,-95.817 h 12.707 l 0.636,95.817 h 5.719 l 0.633,-95.817 h 5.719 l 0.636,95.817 h 8.895 l 0.637,-95.817 h 8.894 l 0.633,95.817 h 5.086 l 0.633,-95.817 h 8.261 l 0.633,95.817 h 6.989 l 0.636,-95.817 h 22.875 l 0.633,95.817 h 2.543 l 0.633,-95.817 h 3.18 l 0.632,95.817 h 62.903 l 0.632,-95.817 h 20.333 l 0.636,95.817 h 21.602 l 0.637,-95.817 h 4.445 l 0.637,95.817 h 3.812 l 0.633,-95.817 h 22.238 l 0.637,95.817 h 2.539 l 0.637,-95.817 h 3.812 l 0.637,95.817 h 39.391 l 0.636,-95.817 h 5.719 l 0.633,95.817 h 8.894 l 0.637,-95.817 h 3.176 l 0.637,95.817 h 3.812 l 0.633,-95.817 h 8.262 l 0.632,95.817 h 19.063 l 0.637,-95.817 h 11.433 l 0.637,95.817 h 11.437 l 0.633,-95.817 h 12.707 l 0.637,95.817 h 8.262 l 0.633,-95.817 h 10.167 l 0.633,95.817 h 17.157 l 0.632,-95.817 h 12.707 l 0.637,95.817 h 8.262 l 0.633,-95.817 h 12.707 l 0.636,95.817 h 6.989" />
              </g>
            </g>
          </g>
        </g>
      </g>
    </g>
    <g
       transform="matrix(0.35277777,0,0,0.35277777,-123.34462,-411.67281)"
       id="g6734">
      <g
         id="g6736">
        <path
           d="M 177.016,1634.746 V 1494.215"
           style="fill:none;stroke:#262626;stroke-width:2.132792;stroke-linecap:square;stroke-linejoin:miter;stroke-miterlimit:4;stroke-dasharray:none;stroke-opacity:1"
           id="path6738"
           inkscape:connector-curvature="0" />
      </g>
      <g
         id="g6740">
        <path
           d="M 811.734,1634.746 V 1494.215"
           style="fill:none;stroke:#262626;stroke-width:2.132792;stroke-linecap:square;stroke-linejoin:miter;stroke-miterlimit:4;stroke-dasharray:none;stroke-opacity:1"
           id="path6742"
           inkscape:connector-curvature="0" />
      </g>
      <g
         id="g6744">
        <path
           d="M 177.016,1634.746 H 811.734"
           style="fill:none;stroke:#262626;stroke-width:2.132792;stroke-linecap:square;stroke-linejoin:miter;stroke-miterlimit:4;stroke-dasharray:none;stroke-opacity:1"
           id="path6746"
           inkscape:connector-curvature="0" />
      </g>
      <g
         id="g6748">
        <path
           d="M 177.016,1494.215 H 811.734"
           style="fill:none;stroke:#262626;stroke-width:2.132792;stroke-linecap:square;stroke-linejoin:miter;stroke-miterlimit:4;stroke-dasharray:none;stroke-opacity:1"
           id="path6750"
           inkscape:connector-curvature="0" />
      </g>
      <path
         d="m 422.719,1478.992 h 1.379 v 8.399 h -1.379 z m 0,-3.269 h 1.379 v 1.75 h -1.379 z"
         style="fill:#262626;fill-opacity:1;fill-rule:nonzero;stroke:none"
         id="path6752"
         inkscape:connector-curvature="0" />
      <path
         d="m 431.848,1480.281 c -0.153,-0.09 -0.321,-0.156 -0.504,-0.199 -0.184,-0.043 -0.383,-0.062 -0.602,-0.062 -0.781,0 -1.383,0.253 -1.797,0.761 -0.418,0.504 -0.629,1.235 -0.629,2.184 v 4.426 h -1.386 v -8.399 h 1.386 v 1.305 c 0.293,-0.508 0.668,-0.887 1.133,-1.133 0.465,-0.25 1.031,-0.375 1.696,-0.375 0.097,0 0.199,0.01 0.316,0.02 0.113,0.011 0.242,0.031 0.383,0.054 z"
         style="fill:#262626;fill-opacity:1;fill-rule:nonzero;stroke:none"
         id="path6754"
         inkscape:connector-curvature="0" />
      <path
         d="m 438.16,1480.281 c -0.156,-0.09 -0.324,-0.156 -0.508,-0.199 -0.179,-0.043 -0.382,-0.062 -0.601,-0.062 -0.781,0 -1.379,0.253 -1.797,0.761 -0.418,0.504 -0.625,1.235 -0.625,2.184 v 4.426 h -1.387 v -8.399 h 1.387 v 1.305 c 0.289,-0.508 0.668,-0.887 1.133,-1.133 0.465,-0.25 1.031,-0.375 1.695,-0.375 0.094,0 0.199,0.01 0.316,0.02 0.114,0.011 0.243,0.031 0.379,0.054 z"
         style="fill:#262626;fill-opacity:1;fill-rule:nonzero;stroke:none"
         id="path6756"
         inkscape:connector-curvature="0" />
      <path
         d="m 446.785,1482.844 v 0.676 h -6.344 c 0.063,0.949 0.348,1.675 0.86,2.171 0.511,0.497 1.226,0.747 2.14,0.747 0.532,0 1.043,-0.067 1.543,-0.196 0.496,-0.129 0.989,-0.324 1.481,-0.586 v 1.309 c -0.496,0.207 -1.004,0.367 -1.524,0.476 -0.519,0.114 -1.046,0.168 -1.582,0.168 -1.339,0 -2.402,-0.39 -3.183,-1.168 -0.781,-0.781 -1.172,-1.836 -1.172,-3.168 0,-1.375 0.371,-2.464 1.113,-3.269 0.742,-0.809 1.742,-1.215 3.004,-1.215 1.129,0 2.024,0.367 2.68,1.094 0.656,0.726 0.984,1.715 0.984,2.961 z m -1.379,-0.403 c -0.008,-0.753 -0.218,-1.355 -0.633,-1.804 -0.414,-0.453 -0.957,-0.676 -1.636,-0.676 -0.77,0 -1.387,0.215 -1.848,0.652 -0.465,0.434 -0.73,1.047 -0.801,1.836 l 4.918,-0.01 z"
         style="fill:#262626;fill-opacity:1;fill-rule:nonzero;stroke:none"
         id="path6758"
         inkscape:connector-curvature="0" />
      <path
         d="m 454.578,1483.094 c 0,-1 -0.207,-1.774 -0.621,-2.324 -0.41,-0.551 -0.988,-0.825 -1.734,-0.825 -0.739,0 -1.317,0.274 -1.727,0.825 -0.414,0.55 -0.621,1.324 -0.621,2.324 0,0.992 0.207,1.765 0.621,2.316 0.41,0.551 0.988,0.824 1.727,0.824 0.746,0 1.324,-0.273 1.734,-0.824 0.414,-0.551 0.621,-1.324 0.621,-2.316 z m 1.379,3.254 c 0,1.429 -0.32,2.492 -0.953,3.191 -0.633,0.695 -1.606,1.043 -2.914,1.043 -0.485,0 -0.945,-0.035 -1.375,-0.105 -0.43,-0.075 -0.848,-0.184 -1.25,-0.336 v -1.34 c 0.402,0.219 0.805,0.379 1.199,0.484 0.395,0.106 0.797,0.16 1.207,0.16 0.902,0 1.582,-0.238 2.031,-0.711 0.45,-0.468 0.676,-1.183 0.676,-2.136 v -0.688 c -0.285,0.496 -0.652,0.867 -1.098,1.113 -0.441,0.247 -0.976,0.368 -1.597,0.368 -1.028,0 -1.856,-0.391 -2.488,-1.176 -0.629,-0.785 -0.946,-1.828 -0.946,-3.121 0,-1.301 0.317,-2.34 0.946,-3.125 0.632,-0.785 1.46,-1.18 2.488,-1.18 0.621,0 1.156,0.125 1.597,0.367 0.446,0.246 0.813,0.617 1.098,1.11 v -1.274 h 1.379 z"
         style="fill:#262626;fill-opacity:1;fill-rule:nonzero;stroke:none"
         id="path6760"
         inkscape:connector-curvature="0" />
      <path
         d="m 458.656,1484.078 v -5.086 h 1.379 v 5.031 c 0,0.797 0.156,1.391 0.465,1.789 0.309,0.399 0.773,0.598 1.395,0.598 0.746,0 1.332,-0.238 1.765,-0.715 0.434,-0.472 0.649,-1.121 0.649,-1.941 v -4.762 h 1.379 v 8.399 h -1.379 v -1.293 c -0.332,0.511 -0.723,0.89 -1.164,1.14 -0.442,0.246 -0.957,0.371 -1.543,0.371 -0.965,0 -1.696,-0.3 -2.196,-0.902 -0.5,-0.598 -0.75,-1.477 -0.75,-2.629 z"
         style="fill:#262626;fill-opacity:1;fill-rule:nonzero;stroke:none"
         id="path6762"
         inkscape:connector-curvature="0" />
      <path
         d="m 468.531,1475.723 h 1.379 v 11.668 h -1.379 z"
         style="fill:#262626;fill-opacity:1;fill-rule:nonzero;stroke:none"
         id="path6764"
         inkscape:connector-curvature="0" />
      <path
         d="m 476.613,1483.168 c -1.113,0 -1.886,0.129 -2.316,0.383 -0.43,0.254 -0.645,0.691 -0.645,1.304 0,0.493 0.16,0.879 0.485,1.168 0.324,0.286 0.761,0.43 1.312,0.43 0.77,0 1.383,-0.273 1.844,-0.816 0.465,-0.539 0.695,-1.262 0.695,-2.16 v -0.309 z m 2.754,-0.57 v 4.793 h -1.379 v -1.274 c -0.316,0.508 -0.711,0.883 -1.179,1.125 -0.469,0.246 -1.047,0.367 -1.727,0.367 -0.855,0 -1.543,-0.242 -2.051,-0.726 -0.508,-0.481 -0.758,-1.129 -0.758,-1.938 0,-0.945 0.313,-1.656 0.946,-2.136 0.633,-0.481 1.578,-0.719 2.832,-0.719 h 1.937 v -0.137 c 0,-0.637 -0.211,-1.125 -0.629,-1.473 -0.418,-0.347 -1.004,-0.519 -1.757,-0.519 -0.481,0 -0.95,0.055 -1.403,0.172 -0.457,0.113 -0.89,0.285 -1.312,0.515 v -1.273 c 0.504,-0.195 0.996,-0.344 1.468,-0.437 0.477,-0.098 0.938,-0.149 1.387,-0.149 1.219,0 2.125,0.316 2.727,0.945 0.597,0.629 0.898,1.586 0.898,2.864 z"
         style="fill:#262626;fill-opacity:1;fill-rule:nonzero;stroke:none"
         id="path6766"
         inkscape:connector-curvature="0" />
      <path
         d="m 487.074,1480.281 c -0.156,-0.09 -0.324,-0.156 -0.508,-0.199 -0.183,-0.043 -0.382,-0.062 -0.601,-0.062 -0.781,0 -1.379,0.253 -1.797,0.761 -0.418,0.504 -0.625,1.235 -0.625,2.184 v 4.426 h -1.387 v -8.399 h 1.387 v 1.305 c 0.289,-0.508 0.668,-0.887 1.133,-1.133 0.465,-0.25 1.027,-0.375 1.695,-0.375 0.094,0 0.199,0.01 0.313,0.02 0.117,0.011 0.242,0.031 0.382,0.054 z"
         style="fill:#262626;fill-opacity:1;fill-rule:nonzero;stroke:none"
         id="path6768"
         inkscape:connector-curvature="0" />
      <path
         d="m 494.766,1476.605 v 2.387 h 2.843 v 1.074 h -2.843 v 4.559 c 0,0.684 0.093,1.125 0.281,1.316 0.187,0.196 0.57,0.293 1.144,0.293 h 1.418 v 1.157 h -1.418 c -1.062,0 -1.8,-0.2 -2.203,-0.594 -0.406,-0.399 -0.609,-1.125 -0.609,-2.172 v -4.559 h -1.012 v -1.074 h 1.012 v -2.387 z"
         style="fill:#262626;fill-opacity:1;fill-rule:nonzero;stroke:none"
         id="path6770"
         inkscape:connector-curvature="0" />
      <path
         d="m 502.676,1479.961 c -0.738,0 -1.324,0.285 -1.754,0.863 -0.43,0.578 -0.645,1.371 -0.645,2.375 0,1.004 0.215,1.793 0.641,2.371 0.43,0.578 1.016,0.868 1.758,0.868 0.738,0 1.32,-0.29 1.746,-0.868 0.433,-0.582 0.648,-1.371 0.648,-2.371 0,-0.996 -0.215,-1.785 -0.648,-2.367 -0.426,-0.582 -1.008,-0.871 -1.746,-0.871 z m 0,-1.172 c 1.199,0 2.14,0.391 2.828,1.172 0.684,0.781 1.027,1.859 1.027,3.238 0,1.375 -0.343,2.453 -1.027,3.235 -0.688,0.785 -1.629,1.175 -2.828,1.175 -1.203,0 -2.149,-0.39 -2.832,-1.175 -0.68,-0.782 -1.02,-1.86 -1.02,-3.235 0,-1.379 0.34,-2.457 1.02,-3.238 0.683,-0.781 1.629,-1.172 2.832,-1.172 z"
         style="fill:#262626;fill-opacity:1;fill-rule:nonzero;stroke:none"
         id="path6772"
         inkscape:connector-curvature="0" />
      <path
         d="m 518.566,1480.281 c -0.156,-0.09 -0.324,-0.156 -0.507,-0.199 -0.184,-0.043 -0.383,-0.062 -0.602,-0.062 -0.781,0 -1.379,0.253 -1.797,0.761 -0.418,0.504 -0.625,1.235 -0.625,2.184 v 4.426 h -1.387 v -8.399 h 1.387 v 1.305 c 0.289,-0.508 0.668,-0.887 1.129,-1.133 0.469,-0.25 1.031,-0.375 1.699,-0.375 0.094,0 0.199,0.01 0.313,0.02 0.117,0.011 0.242,0.031 0.383,0.054 z"
         style="fill:#262626;fill-opacity:1;fill-rule:nonzero;stroke:none"
         id="path6774"
         inkscape:connector-curvature="0" />
      <path
         d="m 527.191,1482.844 v 0.676 h -6.343 c 0.062,0.949 0.347,1.675 0.859,2.171 0.512,0.497 1.227,0.747 2.141,0.747 0.527,0 1.043,-0.067 1.539,-0.196 0.5,-0.129 0.992,-0.324 1.484,-0.586 v 1.309 c -0.496,0.207 -1.004,0.367 -1.523,0.476 -0.52,0.114 -1.047,0.168 -1.582,0.168 -1.34,0 -2.403,-0.39 -3.184,-1.168 -0.781,-0.781 -1.176,-1.836 -1.176,-3.168 0,-1.375 0.371,-2.464 1.114,-3.269 0.742,-0.809 1.746,-1.215 3.003,-1.215 1.133,0 2.024,0.367 2.684,1.094 0.656,0.726 0.984,1.715 0.984,2.961 z m -1.379,-0.403 c -0.011,-0.753 -0.222,-1.355 -0.632,-1.804 -0.414,-0.453 -0.961,-0.676 -1.641,-0.676 -0.769,0 -1.383,0.215 -1.848,0.652 -0.461,0.434 -0.726,1.047 -0.796,1.836 l 4.917,-0.01 z"
         style="fill:#262626;fill-opacity:1;fill-rule:nonzero;stroke:none"
         id="path6776"
         inkscape:connector-curvature="0" />
      <path
         d="m 534.98,1483.094 c 0,-1 -0.207,-1.774 -0.617,-2.324 -0.414,-0.551 -0.992,-0.825 -1.734,-0.825 -0.742,0 -1.317,0.274 -1.731,0.825 -0.41,0.55 -0.617,1.324 -0.617,2.324 0,0.992 0.207,1.765 0.617,2.316 0.414,0.551 0.989,0.824 1.731,0.824 0.742,0 1.32,-0.273 1.734,-0.824 0.41,-0.551 0.617,-1.324 0.617,-2.316 z m 1.379,3.254 c 0,1.429 -0.316,2.492 -0.949,3.191 -0.637,0.695 -1.605,1.043 -2.918,1.043 -0.484,0 -0.941,-0.035 -1.371,-0.105 -0.43,-0.075 -0.848,-0.184 -1.254,-0.336 v -1.34 c 0.406,0.219 0.805,0.379 1.199,0.484 0.399,0.106 0.801,0.16 1.207,0.16 0.907,0 1.586,-0.238 2.036,-0.711 0.449,-0.468 0.671,-1.183 0.671,-2.136 v -0.688 c -0.285,0.496 -0.648,0.867 -1.093,1.113 -0.446,0.247 -0.977,0.368 -1.598,0.368 -1.027,0 -1.859,-0.391 -2.488,-1.176 -0.629,-0.785 -0.946,-1.828 -0.946,-3.121 0,-1.301 0.317,-2.34 0.946,-3.125 0.629,-0.785 1.461,-1.18 2.488,-1.18 0.621,0 1.152,0.125 1.598,0.367 0.445,0.246 0.808,0.617 1.093,1.11 v -1.274 h 1.379 z"
         style="fill:#262626;fill-opacity:1;fill-rule:nonzero;stroke:none"
         id="path6778"
         inkscape:connector-curvature="0" />
      <path
         d="m 539.062,1484.078 v -5.086 h 1.379 v 5.031 c 0,0.797 0.153,1.391 0.461,1.789 0.313,0.399 0.778,0.598 1.399,0.598 0.742,0 1.332,-0.238 1.761,-0.715 0.434,-0.472 0.653,-1.121 0.653,-1.941 v -4.762 h 1.379 v 8.399 h -1.379 v -1.293 c -0.336,0.511 -0.723,0.89 -1.168,1.14 -0.442,0.246 -0.953,0.371 -1.539,0.371 -0.965,0 -1.696,-0.3 -2.199,-0.902 -0.497,-0.598 -0.747,-1.477 -0.747,-2.629 z"
         style="fill:#262626;fill-opacity:1;fill-rule:nonzero;stroke:none"
         id="path6780"
         inkscape:connector-curvature="0" />
      <path
         d="m 548.934,1475.723 h 1.383 v 11.668 h -1.383 z"
         style="fill:#262626;fill-opacity:1;fill-rule:nonzero;stroke:none"
         id="path6782"
         inkscape:connector-curvature="0" />
      <path
         d="m 557.02,1483.168 c -1.114,0 -1.887,0.129 -2.317,0.383 -0.433,0.254 -0.648,0.691 -0.648,1.304 0,0.493 0.164,0.879 0.484,1.168 0.324,0.286 0.762,0.43 1.316,0.43 0.766,0 1.379,-0.273 1.844,-0.816 0.461,-0.539 0.692,-1.262 0.692,-2.16 v -0.309 z m 2.753,-0.57 v 4.793 h -1.382 v -1.274 c -0.313,0.508 -0.707,0.883 -1.176,1.125 -0.473,0.246 -1.047,0.367 -1.727,0.367 -0.859,0 -1.543,-0.242 -2.05,-0.726 -0.508,-0.481 -0.762,-1.129 -0.762,-1.938 0,-0.945 0.316,-1.656 0.949,-2.136 0.633,-0.481 1.578,-0.719 2.832,-0.719 h 1.934 v -0.137 c 0,-0.637 -0.207,-1.125 -0.625,-1.473 -0.418,-0.347 -1.004,-0.519 -1.758,-0.519 -0.481,0 -0.949,0.055 -1.406,0.172 -0.454,0.113 -0.891,0.285 -1.309,0.515 v -1.273 c 0.504,-0.195 0.992,-0.344 1.469,-0.437 0.476,-0.098 0.937,-0.149 1.386,-0.149 1.215,0 2.125,0.316 2.723,0.945 0.602,0.629 0.902,1.586 0.902,2.864 z"
         style="fill:#262626;fill-opacity:1;fill-rule:nonzero;stroke:none"
         id="path6784"
         inkscape:connector-curvature="0" />
      <path
         d="m 567.477,1480.281 c -0.153,-0.09 -0.325,-0.156 -0.504,-0.199 -0.184,-0.043 -0.383,-0.062 -0.602,-0.062 -0.781,0 -1.383,0.253 -1.797,0.761 -0.418,0.504 -0.629,1.235 -0.629,2.184 v 4.426 h -1.386 v -8.399 h 1.386 v 1.305 c 0.293,-0.508 0.668,-0.887 1.133,-1.133 0.465,-0.25 1.031,-0.375 1.695,-0.375 0.098,0 0.2,0.01 0.317,0.02 0.113,0.011 0.242,0.031 0.383,0.054 z"
         style="fill:#262626;fill-opacity:1;fill-rule:nonzero;stroke:none"
         id="path6786"
         inkscape:connector-curvature="0" />
    </g>
    <g
       transform="matrix(0.35277777,0,0,0.35277777,-123.34462,-411.67281)"
       id="g6812">
      <path
         d="m 292.715,1827.133 h 4.847 v 1.168 h -6.515 v -1.168 c 0.527,-0.547 1.246,-1.278 2.152,-2.195 0.91,-0.922 1.485,-1.516 1.715,-1.782 0.445,-0.496 0.758,-0.922 0.934,-1.265 0.175,-0.348 0.265,-0.688 0.265,-1.02 0,-0.547 -0.191,-0.992 -0.574,-1.336 -0.383,-0.344 -0.883,-0.515 -1.496,-0.515 -0.438,0 -0.895,0.074 -1.379,0.226 -0.484,0.152 -1,0.379 -1.551,0.688 v -1.403 c 0.563,-0.222 1.082,-0.394 1.567,-0.508 0.488,-0.113 0.933,-0.171 1.336,-0.171 1.062,0 1.91,0.265 2.543,0.796 0.632,0.532 0.949,1.243 0.949,2.129 0,0.426 -0.082,0.825 -0.238,1.203 -0.157,0.375 -0.446,0.821 -0.864,1.336 -0.113,0.133 -0.476,0.516 -1.094,1.153 -0.613,0.633 -1.476,1.523 -2.597,2.664 z"
         style="fill:#262626;fill-opacity:1;fill-rule:nonzero;stroke:none"
         id="path6814"
         inkscape:connector-curvature="0" />
      <path
         d="m 303.445,1818.953 c -0.715,0 -1.25,0.352 -1.613,1.055 -0.359,0.703 -0.539,1.758 -0.539,3.172 0,1.406 0.18,2.461 0.539,3.164 0.363,0.703 0.898,1.054 1.613,1.054 0.719,0 1.258,-0.351 1.617,-1.054 0.364,-0.703 0.543,-1.758 0.543,-3.164 0,-1.414 -0.179,-2.469 -0.543,-3.172 -0.359,-0.703 -0.898,-1.055 -1.617,-1.055 z m 0,-1.101 c 1.153,0 2.032,0.457 2.637,1.367 0.606,0.906 0.91,2.226 0.91,3.961 0,1.726 -0.304,3.047 -0.91,3.957 -0.605,0.906 -1.484,1.363 -2.637,1.363 -1.148,0 -2.027,-0.457 -2.636,-1.363 -0.606,-0.91 -0.911,-2.231 -0.911,-3.957 0,-1.735 0.305,-3.055 0.911,-3.961 0.609,-0.91 1.488,-1.367 2.636,-1.367 z"
         style="fill:#262626;fill-opacity:1;fill-rule:nonzero;stroke:none"
         id="path6816"
         inkscape:connector-curvature="0" />
      <path
         d="m 312.402,1818.953 c -0.714,0 -1.254,0.352 -1.613,1.055 -0.359,0.703 -0.539,1.758 -0.539,3.172 0,1.406 0.18,2.461 0.539,3.164 0.359,0.703 0.899,1.054 1.613,1.054 0.719,0 1.258,-0.351 1.618,-1.054 0.359,-0.703 0.542,-1.758 0.542,-3.164 0,-1.414 -0.183,-2.469 -0.542,-3.172 -0.36,-0.703 -0.899,-1.055 -1.618,-1.055 z m 0,-1.101 c 1.149,0 2.028,0.457 2.637,1.367 0.606,0.906 0.91,2.226 0.91,3.961 0,1.726 -0.304,3.047 -0.91,3.957 -0.609,0.906 -1.488,1.363 -2.637,1.363 -1.152,0 -2.031,-0.457 -2.636,-1.363 -0.606,-0.91 -0.911,-2.231 -0.911,-3.957 0,-1.735 0.305,-3.055 0.911,-3.961 0.605,-0.91 1.484,-1.367 2.636,-1.367 z"
         style="fill:#262626;fill-opacity:1;fill-rule:nonzero;stroke:none"
         id="path6818"
         inkscape:connector-curvature="0" />
      <path
         d="m 422.406,1819.246 -3.504,5.481 h 3.504 z m -0.363,-1.211 h 1.746 v 6.692 h 1.465 v 1.152 h -1.465 v 2.422 h -1.383 v -2.422 h -4.633 v -1.34 z"
         style="fill:#262626;fill-opacity:1;fill-rule:nonzero;stroke:none"
         id="path6820"
         inkscape:connector-curvature="0" />
      <path
         d="m 430.516,1818.953 c -0.715,0 -1.25,0.352 -1.614,1.055 -0.359,0.703 -0.539,1.758 -0.539,3.172 0,1.406 0.18,2.461 0.539,3.164 0.364,0.703 0.899,1.054 1.614,1.054 0.718,0 1.261,-0.351 1.617,-1.054 0.363,-0.703 0.543,-1.758 0.543,-3.164 0,-1.414 -0.18,-2.469 -0.543,-3.172 -0.356,-0.703 -0.899,-1.055 -1.617,-1.055 z m 0,-1.101 c 1.152,0 2.031,0.457 2.636,1.367 0.61,0.906 0.91,2.226 0.91,3.961 0,1.726 -0.3,3.047 -0.91,3.957 -0.605,0.906 -1.484,1.363 -2.636,1.363 -1.149,0 -2.028,-0.457 -2.633,-1.363 -0.61,-0.91 -0.914,-2.231 -0.914,-3.957 0,-1.735 0.304,-3.055 0.914,-3.961 0.605,-0.91 1.484,-1.367 2.633,-1.367 z"
         style="fill:#262626;fill-opacity:1;fill-rule:nonzero;stroke:none"
         id="path6822"
         inkscape:connector-curvature="0" />
      <path
         d="m 439.473,1818.953 c -0.715,0 -1.254,0.352 -1.614,1.055 -0.359,0.703 -0.539,1.758 -0.539,3.172 0,1.406 0.18,2.461 0.539,3.164 0.36,0.703 0.899,1.054 1.614,1.054 0.718,0 1.257,-0.351 1.617,-1.054 0.363,-0.703 0.543,-1.758 0.543,-3.164 0,-1.414 -0.18,-2.469 -0.543,-3.172 -0.36,-0.703 -0.899,-1.055 -1.617,-1.055 z m 0,-1.101 c 1.148,0 2.027,0.457 2.636,1.367 0.606,0.906 0.911,2.226 0.911,3.961 0,1.726 -0.305,3.047 -0.911,3.957 -0.609,0.906 -1.488,1.363 -2.636,1.363 -1.153,0 -2.028,-0.457 -2.637,-1.363 -0.606,-0.91 -0.91,-2.231 -0.91,-3.957 0,-1.735 0.304,-3.055 0.91,-3.961 0.609,-0.91 1.484,-1.367 2.637,-1.367 z"
         style="fill:#262626;fill-opacity:1;fill-rule:nonzero;stroke:none"
         id="path6824"
         inkscape:connector-curvature="0" />
      <path
         d="m 548.805,1822.617 c -0.625,0 -1.117,0.211 -1.485,0.637 -0.363,0.426 -0.543,1.012 -0.543,1.754 0,0.734 0.18,1.32 0.543,1.75 0.368,0.426 0.86,0.64 1.485,0.64 0.625,0 1.117,-0.214 1.48,-0.64 0.363,-0.43 0.547,-1.016 0.547,-1.75 0,-0.742 -0.184,-1.328 -0.547,-1.754 -0.363,-0.426 -0.855,-0.637 -1.48,-0.637 z m 2.757,-4.355 v 1.265 c -0.351,-0.164 -0.703,-0.289 -1.058,-0.375 -0.356,-0.09 -0.707,-0.132 -1.055,-0.132 -0.918,0 -1.617,0.308 -2.101,0.929 -0.481,0.617 -0.758,1.551 -0.825,2.805 0.27,-0.402 0.606,-0.707 1.016,-0.918 0.406,-0.215 0.856,-0.32 1.348,-0.32 1.031,0 1.843,0.312 2.441,0.941 0.602,0.621 0.899,1.473 0.899,2.551 0,1.054 -0.313,1.898 -0.934,2.535 -0.625,0.637 -1.453,0.957 -2.488,0.957 -1.188,0 -2.094,-0.457 -2.723,-1.363 -0.629,-0.91 -0.941,-2.231 -0.941,-3.957 0,-1.621 0.382,-2.914 1.156,-3.879 0.769,-0.965 1.801,-1.449 3.098,-1.449 0.347,0 0.699,0.035 1.054,0.105 0.356,0.066 0.727,0.168 1.113,0.305 z"
         style="fill:#262626;fill-opacity:1;fill-rule:nonzero;stroke:none"
         id="path6826"
         inkscape:connector-curvature="0" />
      <path
         d="m 557.586,1818.953 c -0.715,0 -1.25,0.352 -1.613,1.055 -0.356,0.703 -0.535,1.758 -0.535,3.172 0,1.406 0.179,2.461 0.535,3.164 0.363,0.703 0.898,1.054 1.613,1.054 0.723,0 1.262,-0.351 1.621,-1.054 0.359,-0.703 0.539,-1.758 0.539,-3.164 0,-1.414 -0.18,-2.469 -0.539,-3.172 -0.359,-0.703 -0.898,-1.055 -1.621,-1.055 z m 0,-1.101 c 1.152,0 2.031,0.457 2.637,1.367 0.609,0.906 0.91,2.226 0.91,3.961 0,1.726 -0.301,3.047 -0.91,3.957 -0.606,0.906 -1.485,1.363 -2.637,1.363 -1.148,0 -2.027,-0.457 -2.633,-1.363 -0.609,-0.91 -0.91,-2.231 -0.91,-3.957 0,-1.735 0.301,-3.055 0.91,-3.961 0.606,-0.91 1.485,-1.367 2.633,-1.367 z"
         style="fill:#262626;fill-opacity:1;fill-rule:nonzero;stroke:none"
         id="path6828"
         inkscape:connector-curvature="0" />
      <path
         d="m 566.543,1818.953 c -0.715,0 -1.25,0.352 -1.613,1.055 -0.36,0.703 -0.539,1.758 -0.539,3.172 0,1.406 0.179,2.461 0.539,3.164 0.363,0.703 0.898,1.054 1.613,1.054 0.719,0 1.258,-0.351 1.617,-1.054 0.363,-0.703 0.543,-1.758 0.543,-3.164 0,-1.414 -0.18,-2.469 -0.543,-3.172 -0.359,-0.703 -0.898,-1.055 -1.617,-1.055 z m 0,-1.101 c 1.152,0 2.031,0.457 2.637,1.367 0.605,0.906 0.91,2.226 0.91,3.961 0,1.726 -0.305,3.047 -0.91,3.957 -0.606,0.906 -1.485,1.363 -2.637,1.363 -1.148,0 -2.027,-0.457 -2.637,-1.363 -0.605,-0.91 -0.91,-2.231 -0.91,-3.957 0,-1.735 0.305,-3.055 0.91,-3.961 0.61,-0.91 1.489,-1.367 2.637,-1.367 z"
         style="fill:#262626;fill-opacity:1;fill-rule:nonzero;stroke:none"
         id="path6830"
         inkscape:connector-curvature="0" />
      <path
         d="m 675.703,1823.426 c -0.66,0 -1.18,0.176 -1.558,0.531 -0.375,0.352 -0.567,0.836 -0.567,1.453 0,0.621 0.192,1.106 0.567,1.461 0.378,0.352 0.898,0.527 1.558,0.527 0.66,0 1.18,-0.175 1.559,-0.531 0.379,-0.355 0.57,-0.84 0.57,-1.457 0,-0.617 -0.187,-1.101 -0.566,-1.453 -0.375,-0.355 -0.899,-0.531 -1.563,-0.531 z m -1.391,-0.59 c -0.593,-0.148 -1.058,-0.426 -1.39,-0.832 -0.332,-0.41 -0.496,-0.906 -0.496,-1.492 0,-0.821 0.289,-1.469 0.875,-1.946 0.586,-0.476 1.387,-0.714 2.402,-0.714 1.02,0 1.824,0.238 2.406,0.714 0.582,0.477 0.871,1.125 0.871,1.946 0,0.586 -0.164,1.082 -0.5,1.492 -0.328,0.406 -0.792,0.684 -1.382,0.832 0.668,0.156 1.191,0.461 1.562,0.914 0.375,0.453 0.563,1.008 0.563,1.66 0,0.996 -0.305,1.762 -0.914,2.293 -0.606,0.531 -1.477,0.797 -2.606,0.797 -1.133,0 -2,-0.266 -2.609,-0.797 -0.61,-0.531 -0.91,-1.297 -0.91,-2.293 0,-0.652 0.187,-1.207 0.562,-1.66 0.375,-0.453 0.899,-0.758 1.566,-0.914 z m -0.507,-2.191 c 0,0.527 0.168,0.941 0.5,1.242 0.332,0.297 0.797,0.445 1.398,0.445 0.594,0 1.063,-0.148 1.399,-0.445 0.336,-0.301 0.503,-0.715 0.503,-1.242 0,-0.536 -0.167,-0.95 -0.503,-1.247 -0.336,-0.296 -0.805,-0.445 -1.399,-0.445 -0.601,0 -1.066,0.149 -1.398,0.445 -0.332,0.297 -0.5,0.711 -0.5,1.247 z"
         style="fill:#262626;fill-opacity:1;fill-rule:nonzero;stroke:none"
         id="path6832"
         inkscape:connector-curvature="0" />
      <path
         d="m 684.656,1818.953 c -0.711,0 -1.25,0.352 -1.609,1.055 -0.359,0.703 -0.539,1.758 -0.539,3.172 0,1.406 0.18,2.461 0.539,3.164 0.359,0.703 0.898,1.054 1.609,1.054 0.723,0 1.262,-0.351 1.621,-1.054 0.36,-0.703 0.539,-1.758 0.539,-3.164 0,-1.414 -0.179,-2.469 -0.539,-3.172 -0.359,-0.703 -0.898,-1.055 -1.621,-1.055 z m 0,-1.101 c 1.153,0 2.032,0.457 2.637,1.367 0.609,0.906 0.914,2.226 0.914,3.961 0,1.726 -0.305,3.047 -0.914,3.957 -0.605,0.906 -1.484,1.363 -2.637,1.363 -1.148,0 -2.027,-0.457 -2.633,-1.363 -0.609,-0.91 -0.91,-2.231 -0.91,-3.957 0,-1.735 0.301,-3.055 0.91,-3.961 0.606,-0.91 1.485,-1.367 2.633,-1.367 z"
         style="fill:#262626;fill-opacity:1;fill-rule:nonzero;stroke:none"
         id="path6834"
         inkscape:connector-curvature="0" />
      <path
         d="m 693.613,1818.953 c -0.715,0 -1.25,0.352 -1.613,1.055 -0.359,0.703 -0.539,1.758 -0.539,3.172 0,1.406 0.18,2.461 0.539,3.164 0.363,0.703 0.898,1.054 1.613,1.054 0.719,0 1.258,-0.351 1.617,-1.054 0.364,-0.703 0.543,-1.758 0.543,-3.164 0,-1.414 -0.179,-2.469 -0.543,-3.172 -0.359,-0.703 -0.898,-1.055 -1.617,-1.055 z m 0,-1.101 c 1.153,0 2.032,0.457 2.637,1.367 0.609,0.906 0.91,2.226 0.91,3.961 0,1.726 -0.301,3.047 -0.91,3.957 -0.605,0.906 -1.484,1.363 -2.637,1.363 -1.148,0 -2.027,-0.457 -2.633,-1.363 -0.609,-0.91 -0.914,-2.231 -0.914,-3.957 0,-1.735 0.305,-3.055 0.914,-3.961 0.606,-0.91 1.485,-1.367 2.633,-1.367 z"
         style="fill:#262626;fill-opacity:1;fill-rule:nonzero;stroke:none"
         id="path6836"
         inkscape:connector-curvature="0" />
      <path
         d="m 795.566,1827.133 h 2.27 v -7.832 l -2.469,0.496 v -1.266 l 2.453,-0.496 h 1.391 v 9.098 h 2.266 v 1.168 h -5.911 z"
         style="fill:#262626;fill-opacity:1;fill-rule:nonzero;stroke:none"
         id="path6838"
         inkscape:connector-curvature="0" />
      <path
         d="m 807.25,1818.953 c -0.715,0 -1.25,0.352 -1.613,1.055 -0.36,0.703 -0.539,1.758 -0.539,3.172 0,1.406 0.179,2.461 0.539,3.164 0.363,0.703 0.898,1.054 1.613,1.054 0.719,0 1.262,-0.351 1.621,-1.054 0.359,-0.703 0.539,-1.758 0.539,-3.164 0,-1.414 -0.18,-2.469 -0.539,-3.172 -0.359,-0.703 -0.902,-1.055 -1.621,-1.055 z m 0,-1.101 c 1.152,0 2.031,0.457 2.637,1.367 0.609,0.906 0.91,2.226 0.91,3.961 0,1.726 -0.301,3.047 -0.91,3.957 -0.606,0.906 -1.485,1.363 -2.637,1.363 -1.148,0 -2.027,-0.457 -2.633,-1.363 -0.609,-0.91 -0.914,-2.231 -0.914,-3.957 0,-1.735 0.305,-3.055 0.914,-3.961 0.606,-0.91 1.485,-1.367 2.633,-1.367 z"
         style="fill:#262626;fill-opacity:1;fill-rule:nonzero;stroke:none"
         id="path6840"
         inkscape:connector-curvature="0" />
      <path
         d="m 816.207,1818.953 c -0.715,0 -1.254,0.352 -1.613,1.055 -0.36,0.703 -0.539,1.758 -0.539,3.172 0,1.406 0.179,2.461 0.539,3.164 0.359,0.703 0.898,1.054 1.613,1.054 0.719,0 1.258,-0.351 1.617,-1.054 0.364,-0.703 0.543,-1.758 0.543,-3.164 0,-1.414 -0.179,-2.469 -0.543,-3.172 -0.359,-0.703 -0.898,-1.055 -1.617,-1.055 z m 0,-1.101 c 1.148,0 2.031,0.457 2.637,1.367 0.605,0.906 0.91,2.226 0.91,3.961 0,1.726 -0.305,3.047 -0.91,3.957 -0.606,0.906 -1.489,1.363 -2.637,1.363 -1.148,0 -2.027,-0.457 -2.637,-1.363 -0.605,-0.91 -0.91,-2.231 -0.91,-3.957 0,-1.735 0.305,-3.055 0.91,-3.961 0.61,-0.91 1.489,-1.367 2.637,-1.367 z"
         style="fill:#262626;fill-opacity:1;fill-rule:nonzero;stroke:none"
         id="path6842"
         inkscape:connector-curvature="0" />
      <path
         d="m 825.164,1818.953 c -0.715,0 -1.254,0.352 -1.613,1.055 -0.36,0.703 -0.539,1.758 -0.539,3.172 0,1.406 0.179,2.461 0.539,3.164 0.359,0.703 0.898,1.054 1.613,1.054 0.719,0 1.258,-0.351 1.617,-1.054 0.36,-0.703 0.539,-1.758 0.539,-3.164 0,-1.414 -0.179,-2.469 -0.539,-3.172 -0.359,-0.703 -0.898,-1.055 -1.617,-1.055 z m 0,-1.101 c 1.148,0 2.027,0.457 2.637,1.367 0.605,0.906 0.91,2.226 0.91,3.961 0,1.726 -0.305,3.047 -0.91,3.957 -0.61,0.906 -1.489,1.363 -2.637,1.363 -1.152,0 -2.031,-0.457 -2.637,-1.363 -0.605,-0.91 -0.91,-2.231 -0.91,-3.957 0,-1.735 0.305,-3.055 0.91,-3.961 0.606,-0.91 1.485,-1.367 2.637,-1.367 z"
         style="fill:#262626;fill-opacity:1;fill-rule:nonzero;stroke:none"
         id="path6844"
         inkscape:connector-curvature="0" />
      <path
         d="m 482.047,1836.66 v 2.387 h 2.844 v 1.074 h -2.844 v 4.559 c 0,0.683 0.094,1.125 0.281,1.316 0.188,0.195 0.57,0.293 1.145,0.293 h 1.418 v 1.156 h -1.418 c -1.067,0 -1.801,-0.199 -2.203,-0.593 -0.407,-0.399 -0.61,-1.125 -0.61,-2.172 v -4.559 h -1.012 v -1.074 h 1.012 v -2.387 z"
         style="fill:#262626;fill-opacity:1;fill-rule:nonzero;stroke:none"
         id="path6846"
         inkscape:connector-curvature="0" />
      <path
         d="m 491.57,1840.336 c -0.156,-0.09 -0.324,-0.156 -0.508,-0.199 -0.179,-0.043 -0.382,-0.063 -0.601,-0.063 -0.781,0 -1.379,0.254 -1.797,0.762 -0.418,0.504 -0.625,1.234 -0.625,2.184 v 4.425 h -1.387 v -8.398 h 1.387 v 1.305 c 0.289,-0.508 0.668,-0.887 1.133,-1.133 0.465,-0.25 1.031,-0.375 1.695,-0.375 0.094,0 0.199,0.01 0.313,0.019 0.117,0.012 0.242,0.032 0.382,0.055 z"
         style="fill:#262626;fill-opacity:1;fill-rule:nonzero;stroke:none"
         id="path6848"
         inkscape:connector-curvature="0" />
      <path
         d="m 493.016,1839.047 h 1.382 v 8.398 h -1.382 z m 0,-3.27 h 1.382 v 1.75 h -1.382 z"
         style="fill:#262626;fill-opacity:1;fill-rule:nonzero;stroke:none"
         id="path6850"
         inkscape:connector-curvature="0" />
      <path
         d="m 501.102,1843.223 c -1.118,0 -1.887,0.129 -2.321,0.382 -0.429,0.254 -0.644,0.692 -0.644,1.305 0,0.492 0.164,0.879 0.484,1.168 0.324,0.285 0.762,0.43 1.317,0.43 0.765,0 1.378,-0.274 1.843,-0.817 0.461,-0.539 0.692,-1.261 0.692,-2.16 v -0.308 z m 2.75,-0.571 v 4.793 h -1.379 v -1.273 c -0.313,0.508 -0.707,0.883 -1.176,1.125 -0.473,0.246 -1.047,0.367 -1.727,0.367 -0.859,0 -1.543,-0.242 -2.05,-0.726 -0.508,-0.481 -0.762,-1.129 -0.762,-1.938 0,-0.945 0.316,-1.656 0.949,-2.137 0.633,-0.48 1.574,-0.718 2.828,-0.718 h 1.938 v -0.137 c 0,-0.637 -0.207,-1.125 -0.625,-1.473 -0.418,-0.347 -1.004,-0.519 -1.758,-0.519 -0.481,0 -0.949,0.054 -1.406,0.172 -0.454,0.113 -0.891,0.285 -1.309,0.515 v -1.273 c 0.504,-0.196 0.992,-0.344 1.469,-0.438 0.472,-0.097 0.937,-0.148 1.386,-0.148 1.215,0 2.122,0.316 2.723,0.945 0.602,0.629 0.899,1.586 0.899,2.863 z"
         style="fill:#262626;fill-opacity:1;fill-rule:nonzero;stroke:none"
         id="path6852"
         inkscape:connector-curvature="0" />
      <path
         d="m 506.695,1835.777 h 1.379 v 11.668 h -1.379 z"
         style="fill:#262626;fill-opacity:1;fill-rule:nonzero;stroke:none"
         id="path6854"
         inkscape:connector-curvature="0" />
      <path
         d="m 135.926,1769.043 c -0.711,0 -1.25,0.352 -1.61,1.055 -0.359,0.703 -0.539,1.761 -0.539,3.172 0,1.406 0.18,2.46 0.539,3.164 0.36,0.707 0.899,1.058 1.61,1.058 0.722,0 1.262,-0.351 1.621,-1.058 0.359,-0.704 0.539,-1.758 0.539,-3.164 0,-1.411 -0.18,-2.469 -0.539,-3.172 -0.359,-0.703 -0.899,-1.055 -1.621,-1.055 z m 0,-1.102 c 1.152,0 2.031,0.457 2.636,1.368 0.61,0.91 0.915,2.23 0.915,3.961 0,1.726 -0.305,3.046 -0.915,3.957 -0.605,0.91 -1.484,1.363 -2.636,1.363 -1.149,0 -2.028,-0.453 -2.633,-1.363 -0.609,-0.911 -0.91,-2.231 -0.91,-3.957 0,-1.731 0.301,-3.051 0.91,-3.961 0.605,-0.911 1.484,-1.368 2.633,-1.368 z"
         style="fill:#262626;fill-opacity:1;fill-rule:nonzero;stroke:none"
         id="path6856"
         inkscape:connector-curvature="0" />
      <path
         d="m 141.914,1776.645 h 1.453 v 1.746 h -1.453 z"
         style="fill:#262626;fill-opacity:1;fill-rule:nonzero;stroke:none"
         id="path6858"
         inkscape:connector-curvature="0" />
      <path
         d="m 147.586,1777.223 h 4.844 v 1.168 h -6.516 v -1.168 c 0.527,-0.547 1.246,-1.278 2.156,-2.196 0.91,-0.918 1.481,-1.511 1.715,-1.777 0.442,-0.5 0.754,-0.922 0.93,-1.27 0.176,-0.343 0.265,-0.683 0.265,-1.019 0,-0.547 -0.191,-0.988 -0.574,-1.332 -0.383,-0.344 -0.879,-0.52 -1.496,-0.52 -0.433,0 -0.894,0.079 -1.379,0.227 -0.48,0.152 -0.996,0.383 -1.547,0.691 v -1.406 c 0.559,-0.223 1.078,-0.391 1.567,-0.508 0.484,-0.113 0.929,-0.172 1.332,-0.172 1.066,0 1.914,0.27 2.543,0.801 0.633,0.531 0.949,1.238 0.949,2.129 0,0.422 -0.078,0.82 -0.238,1.199 -0.157,0.379 -0.446,0.825 -0.86,1.336 -0.117,0.133 -0.48,0.52 -1.093,1.153 -0.614,0.636 -1.481,1.523 -2.598,2.664 z"
         style="fill:#262626;fill-opacity:1;fill-rule:nonzero;stroke:none"
         id="path6860"
         inkscape:connector-curvature="0" />
      <path
         d="m 155.359,1768.129 h 5.45 v 1.168 h -4.18 v 2.515 c 0.203,-0.07 0.402,-0.121 0.605,-0.156 0.204,-0.031 0.403,-0.051 0.606,-0.051 1.144,0 2.051,0.317 2.722,0.942 0.668,0.629 1.004,1.48 1.004,2.551 0,1.105 -0.343,1.961 -1.031,2.574 -0.687,0.613 -1.656,0.918 -2.906,0.918 -0.434,0 -0.871,-0.035 -1.32,-0.11 -0.446,-0.074 -0.907,-0.183 -1.383,-0.328 v -1.398 c 0.414,0.223 0.84,0.391 1.277,0.5 0.442,0.113 0.906,0.168 1.395,0.168 0.793,0 1.422,-0.211 1.882,-0.625 0.465,-0.418 0.696,-0.985 0.696,-1.699 0,-0.715 -0.231,-1.278 -0.696,-1.696 -0.46,-0.418 -1.089,-0.629 -1.882,-0.629 -0.371,0 -0.743,0.043 -1.11,0.125 -0.367,0.082 -0.746,0.211 -1.129,0.387 z"
         style="fill:#262626;fill-opacity:1;fill-rule:nonzero;stroke:none"
         id="path6862"
         inkscape:connector-curvature="0" />
      <path
         d="m 135.926,1729.117 c -0.711,0 -1.25,0.356 -1.61,1.059 -0.359,0.703 -0.539,1.758 -0.539,3.172 0,1.406 0.18,2.461 0.539,3.164 0.36,0.703 0.899,1.054 1.61,1.054 0.722,0 1.262,-0.351 1.621,-1.054 0.359,-0.703 0.539,-1.758 0.539,-3.164 0,-1.414 -0.18,-2.469 -0.539,-3.172 -0.359,-0.703 -0.899,-1.059 -1.621,-1.059 z m 0,-1.097 c 1.152,0 2.031,0.457 2.636,1.367 0.61,0.906 0.915,2.226 0.915,3.961 0,1.726 -0.305,3.047 -0.915,3.957 -0.605,0.906 -1.484,1.363 -2.636,1.363 -1.149,0 -2.028,-0.457 -2.633,-1.363 -0.609,-0.91 -0.91,-2.231 -0.91,-3.957 0,-1.735 0.301,-3.055 0.91,-3.961 0.605,-0.91 1.484,-1.367 2.633,-1.367 z"
         style="fill:#262626;fill-opacity:1;fill-rule:nonzero;stroke:none"
         id="path6864"
         inkscape:connector-curvature="0" />
      <path
         d="m 141.914,1736.719 h 1.453 v 1.746 h -1.453 z"
         style="fill:#262626;fill-opacity:1;fill-rule:nonzero;stroke:none"
         id="path6866"
         inkscape:connector-curvature="0" />
      <path
         d="m 146.402,1728.203 h 5.453 v 1.172 h -4.179 v 2.512 c 0.199,-0.067 0.402,-0.117 0.601,-0.153 0.203,-0.035 0.407,-0.05 0.606,-0.05 1.148,0 2.055,0.312 2.722,0.941 0.672,0.629 1.004,1.477 1.004,2.551 0,1.101 -0.343,1.961 -1.031,2.574 -0.687,0.609 -1.656,0.918 -2.906,0.918 -0.434,0 -0.871,-0.039 -1.317,-0.109 -0.449,-0.075 -0.91,-0.184 -1.386,-0.332 v -1.395 c 0.414,0.223 0.84,0.391 1.281,0.5 0.438,0.109 0.902,0.164 1.395,0.164 0.793,0 1.417,-0.207 1.882,-0.625 0.461,-0.414 0.692,-0.98 0.692,-1.695 0,-0.715 -0.231,-1.281 -0.692,-1.699 -0.465,-0.418 -1.089,-0.625 -1.882,-0.625 -0.372,0 -0.743,0.043 -1.114,0.125 -0.367,0.082 -0.742,0.207 -1.129,0.382 z"
         style="fill:#262626;fill-opacity:1;fill-rule:nonzero;stroke:none"
         id="path6868"
         inkscape:connector-curvature="0" />
      <path
         d="m 158.312,1729.117 c -0.714,0 -1.25,0.356 -1.613,1.059 -0.355,0.703 -0.535,1.758 -0.535,3.172 0,1.406 0.18,2.461 0.535,3.164 0.363,0.703 0.899,1.054 1.613,1.054 0.723,0 1.262,-0.351 1.622,-1.054 0.359,-0.703 0.539,-1.758 0.539,-3.164 0,-1.414 -0.18,-2.469 -0.539,-3.172 -0.36,-0.703 -0.899,-1.059 -1.622,-1.059 z m 0,-1.097 c 1.153,0 2.032,0.457 2.637,1.367 0.61,0.906 0.91,2.226 0.91,3.961 0,1.726 -0.3,3.047 -0.91,3.957 -0.605,0.906 -1.484,1.363 -2.637,1.363 -1.148,0 -2.027,-0.457 -2.632,-1.363 -0.61,-0.91 -0.91,-2.231 -0.91,-3.957 0,-1.735 0.3,-3.055 0.91,-3.961 0.605,-0.91 1.484,-1.367 2.632,-1.367 z"
         style="fill:#262626;fill-opacity:1;fill-rule:nonzero;stroke:none"
         id="path6870"
         inkscape:connector-curvature="0" />
      <path
         d="m 135.926,1689.195 c -0.711,0 -1.25,0.352 -1.61,1.055 -0.359,0.703 -0.539,1.762 -0.539,3.172 0,1.406 0.18,2.461 0.539,3.164 0.36,0.707 0.899,1.059 1.61,1.059 0.722,0 1.262,-0.352 1.621,-1.059 0.359,-0.703 0.539,-1.758 0.539,-3.164 0,-1.41 -0.18,-2.469 -0.539,-3.172 -0.359,-0.703 -0.899,-1.055 -1.621,-1.055 z m 0,-1.101 c 1.152,0 2.031,0.457 2.636,1.367 0.61,0.91 0.915,2.23 0.915,3.961 0,1.726 -0.305,3.047 -0.915,3.957 -0.605,0.91 -1.484,1.363 -2.636,1.363 -1.149,0 -2.028,-0.453 -2.633,-1.363 -0.609,-0.91 -0.91,-2.231 -0.91,-3.957 0,-1.731 0.301,-3.051 0.91,-3.961 0.605,-0.91 1.484,-1.367 2.633,-1.367 z"
         style="fill:#262626;fill-opacity:1;fill-rule:nonzero;stroke:none"
         id="path6872"
         inkscape:connector-curvature="0" />
      <path
         d="m 141.914,1696.797 h 1.453 v 1.746 h -1.453 z"
         style="fill:#262626;fill-opacity:1;fill-rule:nonzero;stroke:none"
         id="path6874"
         inkscape:connector-curvature="0" />
      <path
         d="m 146.039,1688.281 h 6.598 v 0.59 l -3.727,9.672 h -1.449 l 3.508,-9.094 h -4.93 z"
         style="fill:#262626;fill-opacity:1;fill-rule:nonzero;stroke:none"
         id="path6876"
         inkscape:connector-curvature="0" />
      <path
         d="m 155.359,1688.281 h 5.45 v 1.168 h -4.18 v 2.516 c 0.203,-0.07 0.402,-0.121 0.605,-0.156 0.204,-0.032 0.403,-0.047 0.606,-0.047 1.144,0 2.051,0.312 2.722,0.941 0.668,0.625 1.004,1.477 1.004,2.547 0,1.105 -0.343,1.965 -1.031,2.574 -0.687,0.614 -1.656,0.918 -2.906,0.918 -0.434,0 -0.871,-0.035 -1.32,-0.109 -0.446,-0.074 -0.907,-0.184 -1.383,-0.328 v -1.399 c 0.414,0.227 0.84,0.391 1.277,0.5 0.442,0.114 0.906,0.168 1.395,0.168 0.793,0 1.422,-0.211 1.882,-0.625 0.465,-0.418 0.696,-0.984 0.696,-1.699 0,-0.715 -0.231,-1.277 -0.696,-1.695 -0.46,-0.418 -1.089,-0.625 -1.882,-0.625 -0.371,0 -0.743,0.039 -1.11,0.121 -0.367,0.082 -0.746,0.211 -1.129,0.387 z"
         style="fill:#262626;fill-opacity:1;fill-rule:nonzero;stroke:none"
         id="path6878"
         inkscape:connector-curvature="0" />
    </g>
    <g
       transform="matrix(0.35277777,0,0,0.35277777,-123.34462,-411.67281)"
       id="g6880">
      <g
         id="g6882"
         clip-path="url(#clipPath6886)">
        <g
           id="g6888">
          <g
             id="g6890">
            <g
               id="g6892"
               clip-path="url(#clipPath6896)">
              <g
                 id="g6898">
                <g
                   id="g6900">
                  <path
                     d="M 684.664,1797.727 V 1669.969"
                     style="fill:none;stroke:#1a1a1a;stroke-width:3.41246796;stroke-linecap:butt;stroke-linejoin:round;stroke-miterlimit:4;stroke-dasharray:12.626131, 5.459949;stroke-dashoffset:0;stroke-opacity:1"
                     id="path6902"
                     inkscape:connector-curvature="0" />
                </g>
              </g>
            </g>
          </g>
        </g>
      </g>
    </g>
    <g
       transform="matrix(0.35277777,0,0,0.35277777,-123.34462,-411.67281)"
       id="g6904">
      <g
         id="g6906"
         clip-path="url(#clipPath6910)">
        <g
           id="g6912">
          <g
             id="g6914">
            <g
               id="g6916"
               clip-path="url(#clipPath6920)">
              <g
                 id="g6922">
                <g
                   id="g6924">
                  <path
                     d="m 176.379,1781.027 h 8.258 l 0.636,-95.816 h 11.438 l 0.633,95.816 h 11.437 l 0.637,-95.816 h 12.707 l 0.633,95.816 h 8.262 l 0.636,-95.816 h 10.164 l 0.637,95.816 h 17.152 l 0.637,-95.816 h 12.707 l 0.637,95.816 h 8.258 l 0.636,-95.816 h 12.707 l 0.633,95.816 h 13.981 l 0.633,-95.816 h 10.167 l 0.633,95.816 h 10.168 l 0.633,-95.816 h 15.25 l 0.637,95.816 h 8.258 l 0.636,-95.816 h 10.801 l 0.633,95.816 h 12.711 l 0.633,-95.816 h 11.437 l 0.637,95.816 h 15.246 l 0.637,-95.816 h 13.976 l 0.637,95.816 h 8.258 l 0.636,-95.816 h 12.708 l 0.636,95.816 h 7.621 l 0.637,-95.816 h 13.977 l 0.636,95.816 h 9.532 l 0.632,-95.816 h 7.625 l 0.637,95.816 h 9.531 l 0.633,-95.816 h 13.981 l 0.632,95.816 h 12.075 l 0.633,-95.816 h 12.707 l 0.636,95.816 h 10.164 l 0.637,-95.816 h 8.895 l 0.636,95.816 h 10.164 l 0.637,-95.816 h 15.246 l 0.637,95.816 h 10.164 l 0.637,-95.816 h 10.168 l 0.632,95.816 h 12.075 l 0.632,-95.816 h 8.895 l 0.637,95.816 h 10.801 l 0.636,-95.816 h 9.528 l 0.636,95.816 h 10.801 l 0.637,-95.816 h 13.976 l 0.637,95.816 h 20.332 l 0.633,-95.816 h 12.074 l 0.633,95.816 h 3.176 l 0.636,-95.816 h 19.063 l 0.633,95.816 h 1.273 l 0.633,-95.816 h 11.437 l 0.637,95.816 h 19.059 l 0.637,-95.816 h 26.683 l 0.637,95.816 h 3.176 l 0.636,-95.816 h 2.539 l 0.637,95.816 h 8.895"
                     style="fill:none;stroke:#4c72b0;stroke-width:1.70623398;stroke-linecap:round;stroke-linejoin:round;stroke-miterlimit:4;stroke-dasharray:none;stroke-opacity:1"
                     id="path6926"
                     inkscape:connector-curvature="0" />
                </g>
              </g>
            </g>
          </g>
        </g>
      </g>
    </g>
    <g
       transform="matrix(0.35277777,0,0,0.35277777,-123.34462,-411.67281)"
       id="g6928">
      <g
         id="g6930">
        <path
           d="M 177.016,1803.383 V 1662.852"
           style="fill:none;stroke:#262626;stroke-width:2.132792;stroke-linecap:square;stroke-linejoin:miter;stroke-miterlimit:4;stroke-dasharray:none;stroke-opacity:1"
           id="path6932"
           inkscape:connector-curvature="0" />
      </g>
      <g
         id="g6934">
        <path
           d="M 811.734,1803.383 V 1662.852"
           style="fill:none;stroke:#262626;stroke-width:2.132792;stroke-linecap:square;stroke-linejoin:miter;stroke-miterlimit:4;stroke-dasharray:none;stroke-opacity:1"
           id="path6936"
           inkscape:connector-curvature="0" />
      </g>
      <g
         id="g6938">
        <path
           d="M 177.016,1803.383 H 811.734"
           style="fill:none;stroke:#262626;stroke-width:2.132792;stroke-linecap:square;stroke-linejoin:miter;stroke-miterlimit:4;stroke-dasharray:none;stroke-opacity:1"
           id="path6940"
           inkscape:connector-curvature="0" />
      </g>
      <g
         id="g6942">
        <path
           d="M 177.016,1662.852 H 811.734"
           style="fill:none;stroke:#262626;stroke-width:2.132792;stroke-linecap:square;stroke-linejoin:miter;stroke-miterlimit:4;stroke-dasharray:none;stroke-opacity:1"
           id="path6944"
           inkscape:connector-curvature="0" />
      </g>
      <path
         d="m 427.582,1648.918 c -0.152,-0.09 -0.324,-0.156 -0.504,-0.195 -0.183,-0.043 -0.383,-0.067 -0.605,-0.067 -0.778,0 -1.379,0.254 -1.797,0.762 -0.414,0.508 -0.625,1.234 -0.625,2.187 v 4.422 h -1.387 v -8.398 h 1.387 v 1.305 c 0.293,-0.508 0.668,-0.887 1.133,-1.133 0.464,-0.25 1.031,-0.371 1.695,-0.371 0.094,0 0.199,0 0.316,0.019 0.114,0.012 0.243,0.028 0.379,0.055 z"
         style="fill:#262626;fill-opacity:1;fill-rule:nonzero;stroke:none"
         id="path6946"
         inkscape:connector-curvature="0" />
      <path
         d="m 436.211,1651.484 v 0.672 h -6.344 c 0.059,0.953 0.344,1.676 0.856,2.172 0.511,0.5 1.226,0.746 2.14,0.746 0.532,0 1.043,-0.062 1.543,-0.191 0.496,-0.133 0.992,-0.328 1.481,-0.586 v 1.305 c -0.496,0.207 -1.004,0.367 -1.524,0.48 -0.519,0.109 -1.047,0.164 -1.582,0.164 -1.34,0 -2.398,-0.391 -3.183,-1.168 -0.782,-0.781 -1.172,-1.836 -1.172,-3.168 0,-1.375 0.371,-2.465 1.113,-3.269 0.742,-0.809 1.742,-1.211 3.004,-1.211 1.129,0 2.023,0.363 2.68,1.09 0.656,0.726 0.988,1.714 0.988,2.964 z m -1.383,-0.406 c -0.008,-0.754 -0.219,-1.355 -0.633,-1.805 -0.41,-0.449 -0.957,-0.675 -1.636,-0.675 -0.77,0 -1.387,0.218 -1.848,0.652 -0.465,0.434 -0.731,1.047 -0.801,1.836 l 4.918,-0.01 z"
         style="fill:#262626;fill-opacity:1;fill-rule:nonzero;stroke:none"
         id="path6948"
         inkscape:connector-curvature="0" />
      <path
         d="m 444,1651.73 c 0,-1 -0.207,-1.773 -0.621,-2.324 -0.41,-0.547 -0.988,-0.824 -1.734,-0.824 -0.739,0 -1.313,0.277 -1.727,0.824 -0.414,0.551 -0.621,1.324 -0.621,2.324 0,0.997 0.207,1.77 0.621,2.317 0.414,0.551 0.988,0.828 1.727,0.828 0.746,0 1.324,-0.277 1.734,-0.828 0.414,-0.547 0.621,-1.32 0.621,-2.317 z m 1.379,3.258 c 0,1.426 -0.317,2.489 -0.953,3.188 -0.633,0.695 -1.606,1.047 -2.914,1.047 -0.485,0 -0.942,-0.035 -1.375,-0.11 -0.43,-0.07 -0.848,-0.183 -1.25,-0.332 v -1.343 c 0.402,0.218 0.804,0.382 1.199,0.484 0.394,0.105 0.797,0.16 1.207,0.16 0.906,0 1.582,-0.234 2.031,-0.707 0.449,-0.473 0.676,-1.187 0.676,-2.141 v -0.683 c -0.285,0.496 -0.648,0.867 -1.094,1.109 -0.445,0.246 -0.98,0.367 -1.597,0.367 -1.032,0 -1.86,-0.39 -2.489,-1.175 -0.632,-0.786 -0.945,-1.825 -0.945,-3.122 0,-1.296 0.313,-2.339 0.945,-3.125 0.629,-0.785 1.457,-1.175 2.489,-1.175 0.617,0 1.152,0.121 1.597,0.367 0.446,0.242 0.809,0.613 1.094,1.105 v -1.273 h 1.379 z"
         style="fill:#262626;fill-opacity:1;fill-rule:nonzero;stroke:none"
         id="path6950"
         inkscape:connector-curvature="0" />
      <path
         d="m 448.078,1652.715 v -5.086 h 1.379 v 5.031 c 0,0.797 0.156,1.395 0.465,1.793 0.308,0.395 0.777,0.594 1.398,0.594 0.742,0 1.328,-0.238 1.762,-0.711 0.434,-0.477 0.648,-1.125 0.648,-1.945 v -4.762 h 1.383 v 8.398 h -1.383 v -1.289 c -0.332,0.508 -0.722,0.887 -1.164,1.137 -0.441,0.246 -0.957,0.371 -1.539,0.371 -0.965,0 -1.699,-0.301 -2.199,-0.898 -0.5,-0.602 -0.75,-1.477 -0.75,-2.633 z"
         style="fill:#262626;fill-opacity:1;fill-rule:nonzero;stroke:none"
         id="path6952"
         inkscape:connector-curvature="0" />
      <path
         d="m 457.953,1644.359 h 1.379 v 11.668 h -1.379 z"
         style="fill:#262626;fill-opacity:1;fill-rule:nonzero;stroke:none"
         id="path6954"
         inkscape:connector-curvature="0" />
      <path
         d="m 466.039,1651.809 c -1.117,0 -1.891,0.125 -2.32,0.379 -0.43,0.253 -0.645,0.691 -0.645,1.308 0,0.488 0.16,0.875 0.485,1.164 0.324,0.285 0.761,0.43 1.316,0.43 0.766,0 1.379,-0.27 1.84,-0.813 0.465,-0.543 0.695,-1.265 0.695,-2.164 v -0.304 z m 2.75,-0.571 v 4.789 h -1.379 v -1.273 c -0.316,0.508 -0.707,0.883 -1.18,1.129 -0.468,0.242 -1.042,0.363 -1.722,0.363 -0.86,0 -1.543,-0.242 -2.055,-0.723 -0.504,-0.484 -0.758,-1.132 -0.758,-1.941 0,-0.941 0.317,-1.656 0.946,-2.133 0.636,-0.48 1.578,-0.722 2.832,-0.722 h 1.937 v -0.137 c 0,-0.633 -0.211,-1.125 -0.625,-1.473 -0.418,-0.347 -1.004,-0.519 -1.762,-0.519 -0.48,0 -0.945,0.058 -1.402,0.172 -0.453,0.117 -0.891,0.289 -1.309,0.519 v -1.277 c 0.504,-0.196 0.993,-0.34 1.469,-0.438 0.473,-0.097 0.934,-0.144 1.387,-0.144 1.215,0 2.121,0.312 2.723,0.945 0.597,0.629 0.898,1.582 0.898,2.863 z"
         style="fill:#262626;fill-opacity:1;fill-rule:nonzero;stroke:none"
         id="path6956"
         inkscape:connector-curvature="0" />
      <path
         d="m 476.496,1648.918 c -0.156,-0.09 -0.324,-0.156 -0.508,-0.195 -0.179,-0.043 -0.383,-0.067 -0.601,-0.067 -0.782,0 -1.379,0.254 -1.797,0.762 -0.418,0.508 -0.625,1.234 -0.625,2.187 v 4.422 h -1.387 v -8.398 h 1.387 v 1.305 c 0.289,-0.508 0.668,-0.887 1.133,-1.133 0.464,-0.25 1.031,-0.371 1.695,-0.371 0.094,0 0.199,0 0.312,0.019 0.118,0.012 0.243,0.028 0.383,0.055 z"
         style="fill:#262626;fill-opacity:1;fill-rule:nonzero;stroke:none"
         id="path6958"
         inkscape:connector-curvature="0" />
      <path
         d="m 484.191,1645.246 v 2.383 h 2.84 v 1.074 h -2.84 v 4.559 c 0,0.683 0.094,1.125 0.278,1.32 0.187,0.195 0.57,0.293 1.144,0.293 h 1.418 v 1.152 h -1.418 c -1.062,0 -1.797,-0.199 -2.203,-0.593 -0.406,-0.399 -0.605,-1.122 -0.605,-2.172 v -4.559 h -1.016 v -1.074 h 1.016 v -2.383 z"
         style="fill:#262626;fill-opacity:1;fill-rule:nonzero;stroke:none"
         id="path6960"
         inkscape:connector-curvature="0" />
      <path
         d="m 492.098,1648.598 c -0.739,0 -1.325,0.289 -1.754,0.867 -0.43,0.574 -0.645,1.367 -0.645,2.371 0,1.004 0.215,1.797 0.641,2.375 0.43,0.574 1.015,0.863 1.758,0.863 0.738,0 1.32,-0.289 1.75,-0.867 0.429,-0.582 0.644,-1.371 0.644,-2.371 0,-0.996 -0.215,-1.781 -0.644,-2.367 -0.43,-0.582 -1.012,-0.871 -1.75,-0.871 z m 0,-1.168 c 1.199,0 2.144,0.39 2.828,1.168 0.687,0.781 1.027,1.859 1.027,3.238 0,1.375 -0.34,2.453 -1.027,3.238 -0.684,0.781 -1.629,1.172 -2.828,1.172 -1.203,0 -2.149,-0.391 -2.828,-1.172 -0.684,-0.785 -1.024,-1.863 -1.024,-3.238 0,-1.379 0.34,-2.457 1.024,-3.238 0.679,-0.778 1.625,-1.168 2.828,-1.168 z"
         style="fill:#262626;fill-opacity:1;fill-rule:nonzero;stroke:none"
         id="path6962"
         inkscape:connector-curvature="0" />
      <path
         d="m 503.121,1647.629 h 1.379 v 8.398 h -1.379 z m 0,-3.27 h 1.379 v 1.75 h -1.379 z"
         style="fill:#262626;fill-opacity:1;fill-rule:nonzero;stroke:none"
         id="path6964"
         inkscape:connector-curvature="0" />
      <path
         d="m 512.254,1648.918 c -0.156,-0.09 -0.324,-0.156 -0.508,-0.195 -0.18,-0.043 -0.383,-0.067 -0.601,-0.067 -0.782,0 -1.379,0.254 -1.797,0.762 -0.418,0.508 -0.625,1.234 -0.625,2.187 v 4.422 h -1.387 v -8.398 h 1.387 v 1.305 c 0.289,-0.508 0.668,-0.887 1.132,-1.133 0.465,-0.25 1.032,-0.371 1.696,-0.371 0.094,0 0.199,0 0.316,0.019 0.113,0.012 0.242,0.028 0.379,0.055 z"
         style="fill:#262626;fill-opacity:1;fill-rule:nonzero;stroke:none"
         id="path6966"
         inkscape:connector-curvature="0" />
      <path
         d="m 518.566,1648.918 c -0.156,-0.09 -0.324,-0.156 -0.507,-0.195 -0.184,-0.043 -0.383,-0.067 -0.602,-0.067 -0.781,0 -1.379,0.254 -1.797,0.762 -0.418,0.508 -0.625,1.234 -0.625,2.187 v 4.422 h -1.387 v -8.398 h 1.387 v 1.305 c 0.289,-0.508 0.668,-0.887 1.129,-1.133 0.469,-0.25 1.031,-0.371 1.699,-0.371 0.094,0 0.199,0 0.313,0.019 0.117,0.012 0.242,0.028 0.383,0.055 z"
         style="fill:#262626;fill-opacity:1;fill-rule:nonzero;stroke:none"
         id="path6968"
         inkscape:connector-curvature="0" />
      <path
         d="m 527.191,1651.484 v 0.672 h -6.343 c 0.062,0.953 0.347,1.676 0.859,2.172 0.512,0.5 1.227,0.746 2.141,0.746 0.527,0 1.043,-0.062 1.539,-0.191 0.5,-0.133 0.992,-0.328 1.484,-0.586 v 1.305 c -0.496,0.207 -1.004,0.367 -1.523,0.48 -0.52,0.109 -1.047,0.164 -1.582,0.164 -1.34,0 -2.403,-0.391 -3.184,-1.168 -0.781,-0.781 -1.176,-1.836 -1.176,-3.168 0,-1.375 0.371,-2.465 1.114,-3.269 0.742,-0.809 1.746,-1.211 3.003,-1.211 1.133,0 2.024,0.363 2.684,1.09 0.656,0.726 0.984,1.714 0.984,2.964 z m -1.379,-0.406 c -0.011,-0.754 -0.222,-1.355 -0.632,-1.805 -0.414,-0.449 -0.961,-0.675 -1.641,-0.675 -0.769,0 -1.383,0.218 -1.848,0.652 -0.461,0.434 -0.726,1.047 -0.796,1.836 l 4.917,-0.01 z"
         style="fill:#262626;fill-opacity:1;fill-rule:nonzero;stroke:none"
         id="path6970"
         inkscape:connector-curvature="0" />
      <path
         d="m 534.98,1651.73 c 0,-1 -0.207,-1.773 -0.617,-2.324 -0.414,-0.547 -0.992,-0.824 -1.734,-0.824 -0.742,0 -1.317,0.277 -1.731,0.824 -0.41,0.551 -0.617,1.324 -0.617,2.324 0,0.997 0.207,1.77 0.617,2.317 0.414,0.551 0.989,0.828 1.731,0.828 0.742,0 1.32,-0.277 1.734,-0.828 0.41,-0.547 0.617,-1.32 0.617,-2.317 z m 1.379,3.258 c 0,1.426 -0.316,2.489 -0.949,3.188 -0.637,0.695 -1.605,1.047 -2.918,1.047 -0.484,0 -0.941,-0.035 -1.371,-0.11 -0.43,-0.07 -0.848,-0.183 -1.254,-0.332 v -1.343 c 0.406,0.218 0.805,0.382 1.199,0.484 0.399,0.105 0.801,0.16 1.207,0.16 0.907,0 1.586,-0.234 2.036,-0.707 0.449,-0.473 0.671,-1.187 0.671,-2.141 v -0.683 c -0.285,0.496 -0.648,0.867 -1.093,1.109 -0.446,0.246 -0.977,0.367 -1.598,0.367 -1.027,0 -1.859,-0.39 -2.488,-1.175 -0.629,-0.786 -0.946,-1.825 -0.946,-3.122 0,-1.296 0.317,-2.339 0.946,-3.125 0.629,-0.785 1.461,-1.175 2.488,-1.175 0.621,0 1.152,0.121 1.598,0.367 0.445,0.242 0.808,0.613 1.093,1.105 v -1.273 h 1.379 z"
         style="fill:#262626;fill-opacity:1;fill-rule:nonzero;stroke:none"
         id="path6972"
         inkscape:connector-curvature="0" />
      <path
         d="m 539.062,1652.715 v -5.086 h 1.379 v 5.031 c 0,0.797 0.153,1.395 0.461,1.793 0.313,0.395 0.778,0.594 1.399,0.594 0.742,0 1.332,-0.238 1.761,-0.711 0.434,-0.477 0.653,-1.125 0.653,-1.945 v -4.762 h 1.379 v 8.398 h -1.379 v -1.289 c -0.336,0.508 -0.723,0.887 -1.168,1.137 -0.442,0.246 -0.953,0.371 -1.539,0.371 -0.965,0 -1.696,-0.301 -2.199,-0.898 -0.497,-0.602 -0.747,-1.477 -0.747,-2.633 z"
         style="fill:#262626;fill-opacity:1;fill-rule:nonzero;stroke:none"
         id="path6974"
         inkscape:connector-curvature="0" />
      <path
         d="m 548.934,1644.359 h 1.383 v 11.668 h -1.383 z"
         style="fill:#262626;fill-opacity:1;fill-rule:nonzero;stroke:none"
         id="path6976"
         inkscape:connector-curvature="0" />
      <path
         d="m 557.02,1651.809 c -1.114,0 -1.887,0.125 -2.317,0.379 -0.433,0.253 -0.648,0.691 -0.648,1.308 0,0.488 0.164,0.875 0.484,1.164 0.324,0.285 0.762,0.43 1.316,0.43 0.766,0 1.379,-0.27 1.844,-0.813 0.461,-0.543 0.692,-1.265 0.692,-2.164 v -0.304 z m 2.753,-0.571 v 4.789 h -1.382 v -1.273 c -0.313,0.508 -0.707,0.883 -1.176,1.129 -0.473,0.242 -1.047,0.363 -1.727,0.363 -0.859,0 -1.543,-0.242 -2.05,-0.723 -0.508,-0.484 -0.762,-1.132 -0.762,-1.941 0,-0.941 0.316,-1.656 0.949,-2.133 0.633,-0.48 1.578,-0.722 2.832,-0.722 h 1.934 v -0.137 c 0,-0.633 -0.207,-1.125 -0.625,-1.473 -0.418,-0.347 -1.004,-0.519 -1.758,-0.519 -0.481,0 -0.949,0.058 -1.406,0.172 -0.454,0.117 -0.891,0.289 -1.309,0.519 v -1.277 c 0.504,-0.196 0.992,-0.34 1.469,-0.438 0.476,-0.097 0.937,-0.144 1.386,-0.144 1.215,0 2.125,0.312 2.723,0.945 0.602,0.629 0.902,1.582 0.902,2.863 z"
         style="fill:#262626;fill-opacity:1;fill-rule:nonzero;stroke:none"
         id="path6978"
         inkscape:connector-curvature="0" />
      <path
         d="m 567.477,1648.918 c -0.153,-0.09 -0.325,-0.156 -0.504,-0.195 -0.184,-0.043 -0.383,-0.067 -0.602,-0.067 -0.781,0 -1.383,0.254 -1.797,0.762 -0.418,0.508 -0.629,1.234 -0.629,2.187 v 4.422 h -1.386 v -8.398 h 1.386 v 1.305 c 0.293,-0.508 0.668,-0.887 1.133,-1.133 0.465,-0.25 1.031,-0.371 1.695,-0.371 0.098,0 0.2,0 0.317,0.019 0.113,0.012 0.242,0.028 0.383,0.055 z"
         style="fill:#262626;fill-opacity:1;fill-rule:nonzero;stroke:none"
         id="path6980"
         inkscape:connector-curvature="0" />
    </g>
  </g>
</svg>
